<svg width="170" height="60" viewBox="0 0 170 60" fill="none" xmlns="http://www.w3.org/2000/svg">
<path d="M57.0054 57.9516C57.0054 39.3559 57.0054 20.7587 57.0024 2.16295C57.0024 2.02963 57.0321 2 57.1654 2C75.7389 2.00296 94.3109 2.00296 112.884 2.00296C112.961 2.07407 112.956 2.1674 112.956 2.26072C112.956 20.7142 112.956 39.1677 112.956 57.6213C112.956 57.6627 112.96 57.7042 112.956 57.7457C112.939 57.8805 112.899 57.9546 112.724 57.9546C94.1524 57.9486 75.5789 57.9486 57.0069 57.9486L57.0054 57.9516ZM57.869 29.9417C57.869 37.6849 57.869 45.428 57.869 53.1712C57.869 54.4022 57.8661 55.6318 57.8631 56.8628C57.8631 56.9991 57.9165 57.0643 58.0601 57.0717C58.6216 57.1043 59.1815 57.0687 59.7415 57.0702C67.2906 57.0746 74.8382 57.0702 82.3873 57.0702C87.9647 57.0702 93.5421 57.0702 99.118 57.0717C102.907 57.0717 106.697 57.0702 110.485 57.0791C110.932 57.0791 111.379 57.0376 111.83 57.0672C111.901 57.0717 112.04 57.042 112.04 56.8835C112.04 56.2391 112.058 55.5962 112.058 54.9518C112.058 38.3989 112.058 21.846 112.058 5.29162C112.058 4.54797 112.073 3.80284 112.027 3.05918C112.019 2.93771 111.981 2.91845 111.87 2.91845C111.225 2.9229 110.579 2.91845 109.935 2.91845C100.628 2.91845 91.3215 2.91549 82.014 2.91549C74.6723 2.91549 67.3306 2.91697 59.9904 2.91549C59.3771 2.91549 58.7638 2.95845 58.152 2.86216C58.0113 2.83994 57.8705 2.97178 57.869 3.11992C57.8646 3.60581 57.869 4.09022 57.869 4.57611C57.869 13.0303 57.869 21.4845 57.869 29.9388V29.9417Z" fill="#215196"/>
<path d="M57.0054 57.9516C75.5774 57.9516 94.1509 57.9516 112.723 57.9575C112.898 57.9575 112.936 57.882 112.954 57.7486C112.958 57.7072 112.954 57.6657 112.954 57.6242C112.954 39.1707 112.954 20.7172 112.954 2.26369C112.954 2.16888 112.958 2.07703 112.883 2.00593C112.942 2.00741 113.021 1.98371 112.991 2.09481C112.985 2.11703 112.991 2.14221 112.991 2.16592C112.991 20.7172 112.991 39.27 112.995 57.8212C112.995 57.9649 112.967 57.9946 112.822 57.9946C94.2694 57.9901 75.7181 57.9901 57.1654 57.9886C57.1135 57.9886 57.0454 58.0301 57.0054 57.9546V57.9516Z" fill="#FFFFFE"/>
<path d="M57.8691 29.9417C57.8691 21.4875 57.8691 13.0333 57.8691 4.57907C57.8691 4.09318 57.8661 3.60877 57.8691 3.12288C57.8691 2.97474 58.0113 2.8429 58.152 2.86512C58.7624 2.96141 59.3771 2.91845 59.9904 2.91845C67.3321 2.92141 74.6738 2.91845 82.014 2.91845C91.3215 2.91845 100.628 2.91993 109.935 2.92141C110.579 2.92141 111.225 2.92586 111.87 2.92141C111.981 2.92141 112.019 2.94067 112.027 3.06214C112.073 3.8058 112.058 4.55093 112.058 5.29458C112.058 21.8475 112.058 38.4004 112.058 54.9548C112.058 55.5992 112.04 56.2421 112.04 56.8865C112.04 57.045 111.901 57.0746 111.83 57.0702C111.381 57.0406 110.933 57.0835 110.485 57.082C106.695 57.0731 102.906 57.0746 99.118 57.0746C93.5406 57.0746 87.9633 57.0731 82.3874 57.0731C74.8383 57.0731 67.2906 57.0761 59.7415 57.0731C59.1816 57.0731 58.6201 57.1072 58.0602 57.0746C57.9165 57.0657 57.8632 57.002 57.8632 56.8657C57.8661 55.6347 57.8691 54.4052 57.8691 53.1742C57.8691 45.431 57.8691 37.6878 57.8691 29.9447V29.9417ZM111.219 29.9758H111.218C111.218 25.1984 111.218 20.4209 111.218 15.6435C111.218 11.7297 111.215 7.81736 111.218 3.90357C111.218 3.76876 111.181 3.73173 111.048 3.73617C110.686 3.74506 110.326 3.74061 109.965 3.74061C97.2648 3.74061 84.5665 3.74061 71.8666 3.74061C67.5617 3.74061 63.2583 3.74061 58.9535 3.74061C58.7224 3.74061 58.669 3.80283 58.7238 4.02652C58.749 4.12725 58.7431 4.22651 58.7431 4.32576C58.7431 4.91238 58.7327 5.49901 58.7327 6.08563C58.7327 19.424 58.7327 32.7623 58.7327 46.1006C58.7327 49.3626 58.7268 52.6246 58.7238 55.8866C58.7238 56.2228 58.7238 56.2184 59.0409 56.2184C59.5623 56.2184 60.0823 56.2258 60.6037 56.2258C67.8388 56.2273 75.0738 56.2288 82.3088 56.2288C90.2772 56.2288 98.247 56.2288 106.215 56.2273C107.831 56.2273 109.448 56.2228 111.064 56.2258C111.175 56.2258 111.216 56.211 111.215 56.0836C111.209 55.5681 111.219 55.054 111.219 54.5385C111.219 46.3509 111.219 38.1634 111.219 29.9758Z" fill="#FFFFFE"/>
<path d="M111.221 29.9773C111.221 38.1648 111.221 46.3524 111.221 54.54C111.221 55.0555 111.209 55.5695 111.216 56.0851C111.218 56.2125 111.176 56.2273 111.065 56.2273C109.449 56.2258 107.833 56.2288 106.217 56.2288C98.2484 56.2288 90.2786 56.2302 82.3103 56.2302C75.0752 56.2302 67.8402 56.2287 60.6051 56.2273C60.0837 56.2273 59.5637 56.2199 59.0423 56.2199C58.7253 56.2199 58.7253 56.2228 58.7253 55.888C58.7282 52.626 58.7327 49.364 58.7342 46.1021C58.7342 32.7637 58.7342 19.4254 58.7342 6.08711C58.7342 5.50049 58.743 4.91386 58.7445 4.32724C58.7445 4.22798 58.7505 4.12873 58.7253 4.028C58.6705 3.80431 58.7223 3.74209 58.9549 3.74209C63.2598 3.74209 67.5632 3.74209 71.868 3.74209C84.5679 3.74209 97.2663 3.74209 109.966 3.74209C110.328 3.74209 110.689 3.74654 111.049 3.73765C111.182 3.73469 111.219 3.77024 111.219 3.90504C111.216 7.81884 111.219 11.7312 111.219 15.645C111.219 20.4224 111.219 25.1998 111.219 29.9773H111.221ZM84.9812 38.8152C80.8541 38.8137 76.7284 38.8152 72.6013 38.8137C69.5882 38.8137 66.5751 38.8107 63.562 38.8092C63.3472 38.8092 63.2227 38.907 63.2257 39.0951C63.2287 39.2937 63.4168 39.2151 63.516 39.2685C63.5397 39.2818 63.5738 39.2744 63.6034 39.2744C63.9531 39.2744 64.3012 39.2714 64.6508 39.2714C73.1643 39.2714 81.6777 39.2714 90.1912 39.2729C95.4071 39.2729 100.623 39.2774 105.839 39.2774C106.055 39.2774 106.275 39.2966 106.491 39.2403C106.615 39.2077 106.692 39.1633 106.669 39.0166C106.646 38.8789 106.599 38.8018 106.434 38.8078C106.08 38.8226 105.725 38.8166 105.369 38.8166C98.5728 38.8166 91.7763 38.8166 84.9797 38.8166L84.9812 38.8152ZM84.9634 21.3705V21.3749C91.717 21.3749 98.4721 21.3749 105.226 21.3734C105.651 21.3734 106.076 21.3897 106.501 21.3349C106.649 21.3157 106.679 21.2579 106.667 21.132C106.651 20.9616 106.599 20.9231 106.371 20.9246C105.879 20.9275 105.389 20.9335 104.897 20.9335C91.6785 20.9335 78.4602 20.9335 65.2418 20.932C64.7041 20.932 64.1649 20.969 63.6286 20.9038C63.5457 20.8935 63.4612 20.9009 63.3872 20.9424C63.2731 21.0061 63.2198 21.1231 63.2242 21.2386C63.2287 21.3408 63.3501 21.3157 63.4257 21.3364C63.5175 21.3616 63.6109 21.3749 63.7057 21.3734C64.1086 21.372 64.51 21.369 64.913 21.369C71.5955 21.369 78.2794 21.369 84.9619 21.369L84.9634 21.3705ZM64.7885 27.6485C64.7885 27.6382 64.7885 27.6293 64.7885 27.6189C64.3041 27.6189 63.8182 27.6189 63.3338 27.6189C63.2687 27.6189 63.1694 27.5819 63.1531 27.6767C63.1353 27.7804 63.2331 27.8308 63.3146 27.8545C63.4272 27.8871 63.5472 27.8959 63.6568 27.9433C63.7057 27.9641 63.7531 27.9819 63.759 28.05C63.7797 28.3241 63.8345 28.5937 63.8212 28.8722C63.8064 29.1966 63.8301 29.524 63.8168 29.8484C63.7871 30.5476 63.8938 31.2483 63.7664 31.946C63.7308 32.143 63.6983 32.2986 63.4494 32.266C63.4286 32.263 63.402 32.2749 63.3827 32.2853C63.3175 32.3193 63.2494 32.3653 63.2627 32.4438C63.2775 32.5282 63.3472 32.5608 63.4361 32.5549C63.5946 32.5445 63.7545 32.5489 63.9131 32.5356C64.3723 32.4956 64.8271 32.5801 65.2848 32.5875C65.8862 32.5963 66.4847 32.6126 67.0521 32.343C67.3691 32.1919 67.6713 32.0216 67.9157 31.7757C68.3113 31.3787 68.4313 30.8454 68.5379 30.3254C68.6135 29.9521 68.5349 29.5684 68.4224 29.201C68.255 28.6544 67.9039 28.2396 67.4195 27.9641C66.9928 27.7211 66.5084 27.6441 66.0151 27.65C65.6063 27.6545 65.1989 27.65 64.79 27.65L64.7885 27.6485ZM105.706 13.3399C105.451 13.2407 105.335 13.0348 105.177 12.8881C104.87 12.6037 104.602 12.2778 104.298 11.9874C103.839 11.5475 103.41 11.0794 102.958 10.6335C102.682 10.3609 102.429 10.0542 102.159 9.76833C102.085 9.68982 101.996 9.57279 101.882 9.61723C101.781 9.65723 101.827 9.79648 101.826 9.88832C101.805 11.1549 101.789 12.4215 101.776 13.6881C101.774 13.8658 101.739 14.0377 101.73 14.2139C101.728 14.2569 101.727 14.3028 101.667 14.2969C101.516 14.2821 101.405 14.3843 101.275 14.4273C101.21 14.448 101.134 14.4761 101.139 14.5428C101.143 14.6243 101.23 14.6569 101.303 14.6791C101.342 14.6909 101.386 14.688 101.426 14.6835C101.844 14.6361 102.26 14.6406 102.676 14.685C102.762 14.6939 102.836 14.6569 102.916 14.6465C102.961 14.6406 102.996 14.6243 103.005 14.5739C103.013 14.5236 102.98 14.4984 102.946 14.4732C102.867 14.4139 102.773 14.3962 102.682 14.3739C102.476 14.3236 102.371 14.1902 102.359 13.9858C102.334 13.5488 102.322 13.1103 102.293 12.6748C102.267 12.3178 102.287 11.9578 102.232 11.6008C102.21 11.4527 102.192 11.2897 102.282 11.1386C102.337 11.0468 102.368 11.0823 102.407 11.1342C102.467 11.2201 102.51 11.3223 102.583 11.3978C103.087 11.9297 103.587 12.4644 104.11 12.9755C104.466 13.3236 104.811 13.6806 105.162 14.0317C105.39 14.2599 105.626 14.4806 105.849 14.7132C105.95 14.8183 106.003 14.7739 106.049 14.6732C106.094 14.5754 106.11 14.4687 106.101 14.3621C106.083 14.1488 106.101 13.9369 106.101 13.7251C106.091 12.6674 106.135 11.6097 106.157 10.5535C106.16 10.4409 106.141 10.3164 106.2 10.1979C106.277 10.0483 106.421 10.0454 106.546 10.0039C106.646 9.9698 106.698 9.88981 106.692 9.80981C106.685 9.71797 106.578 9.75204 106.514 9.75056C106.112 9.74019 105.71 9.73426 105.307 9.72982C105.172 9.72982 105.008 9.66464 104.929 9.82907C104.885 9.9224 105.082 10.0557 105.303 10.0616C105.469 10.0661 105.547 10.1387 105.566 10.2957C105.575 10.3653 105.598 10.435 105.6 10.5046C105.635 11.4378 105.572 12.3741 105.706 13.3385V13.3399ZM64.5708 46.1391C64.5708 45.7525 64.7219 45.5184 65.0196 45.4014C65.153 45.3495 65.2863 45.3747 65.4211 45.3762C65.8018 45.3777 66.0433 45.6043 66.0655 45.9939C66.0729 46.1228 66.1485 46.2102 66.227 46.2946C66.2907 46.3628 66.3721 46.345 66.381 46.2532C66.4107 45.9747 66.4981 45.705 66.4862 45.4221C66.4803 45.2814 66.4373 45.1821 66.2714 45.1525C66.1233 45.1258 65.9751 45.1021 65.827 45.0799C65.2567 44.997 64.7189 45.0014 64.2478 45.4251C63.8582 45.7776 63.7264 46.465 64.0212 46.8901C64.0701 46.9598 64.1664 47.0057 64.1767 47.0961C64.1945 47.2501 64.0286 47.1627 63.9723 47.2368C63.7886 47.4783 63.5353 47.6531 63.3783 47.9271C63.1131 48.3863 63.0153 48.8559 63.282 49.3241C63.4864 49.6855 63.796 49.9536 64.2093 50.1077C64.51 50.2203 64.7989 50.1729 65.0952 50.1684C65.5603 50.161 65.9722 49.9655 66.3692 49.7536C66.618 49.6203 66.6032 49.5951 66.821 49.7892C66.8373 49.804 66.8625 49.8099 66.8803 49.8233C67.178 50.0529 67.538 50.1107 67.8906 50.1433C68.1468 50.167 68.412 50.0973 68.6742 50.0736C68.769 50.0647 68.8209 49.9788 68.8179 49.9285C68.812 49.8559 68.7231 49.8218 68.6416 49.8159C68.0609 49.7744 67.5972 49.4752 67.1513 49.1374C67.098 49.0974 67.0995 49.0633 67.1454 49.0085C67.3395 48.773 67.4802 48.5123 67.5676 48.213C67.6209 48.0323 67.7083 47.856 67.7232 47.6664C67.732 47.5523 67.7602 47.3731 67.6091 47.3464C67.2847 47.2901 66.9558 47.2101 66.6195 47.296C66.5573 47.3123 66.5292 47.339 66.5262 47.4027C66.5232 47.462 66.5381 47.5153 66.6018 47.5197C66.7277 47.5271 66.8003 47.6353 66.9128 47.6694C67.0121 47.699 67.0565 47.7849 67.0625 47.8901C67.0758 48.1641 67.0002 48.4204 66.9128 48.6752C66.898 48.7182 66.8743 48.7582 66.8358 48.7922C66.7884 48.8337 66.7662 48.8559 66.7054 48.7937C66.5336 48.616 66.3514 48.4486 66.1692 48.2812C65.6611 47.819 65.193 47.3197 64.8004 46.7539C64.6656 46.5613 64.5471 46.3613 64.5737 46.1406L64.5708 46.1391ZM77.4454 45.0947C77.2691 45.0977 77.1447 45.0695 77.0455 45.1792C76.9744 45.2592 76.9729 45.3317 77.0736 45.3643C77.2114 45.4088 77.3447 45.4873 77.4958 45.4784C77.6054 45.4725 77.6336 45.5243 77.6513 45.6206C77.7106 45.9361 77.6869 46.2546 77.6899 46.5731C77.6987 47.6027 77.6943 48.6323 77.6662 49.6603C77.6647 49.7403 77.638 49.7655 77.561 49.7551C77.521 49.7492 77.478 49.7522 77.4365 49.7581C77.2454 49.7848 77.0988 49.8914 77.1106 49.9936C77.124 50.1033 77.3195 50.1788 77.5032 50.1284C77.9224 50.0144 78.3372 50.0188 78.7594 50.1284C78.8779 50.1596 79.0127 50.1595 79.1357 50.084C79.2068 50.0396 79.2083 49.9862 79.2068 49.921C79.2038 49.8573 79.1668 49.8396 79.1105 49.8159C79.0187 49.7788 78.9268 49.7907 78.8335 49.7833C78.6202 49.7655 78.5891 49.7137 78.5594 49.5063C78.5061 49.1418 78.5298 48.7759 78.5031 48.4115C78.472 47.9967 78.5091 48.0308 78.829 48.0427C79.0038 48.0501 79.1861 48.0738 79.3001 48.2204C79.4986 48.4767 79.6734 48.7508 79.8675 49.01C80.1252 49.3552 80.3771 49.7122 80.7474 49.9492C80.9859 50.1018 81.2585 50.1936 81.5444 50.1655C81.6837 50.1521 81.8185 50.0899 81.9681 50.0988C82.0762 50.1047 82.2066 50.1062 82.2318 49.9655C82.2614 49.8011 82.1147 49.8055 82.0125 49.7729C81.9962 49.767 81.977 49.7611 81.9607 49.7625C81.6037 49.7848 81.3652 49.5596 81.1326 49.3463C80.8452 49.0826 80.5904 48.7863 80.3608 48.4693C80.2586 48.3271 80.1593 48.1775 80.0334 48.056C79.8423 47.8708 79.8334 47.7479 80.026 47.5731C80.3726 47.2575 80.623 46.8946 80.6422 46.4013C80.6556 46.0443 80.5771 45.7317 80.306 45.4814C80.0304 45.228 79.6882 45.1303 79.3357 45.1243C78.6883 45.1155 78.0409 45.1584 77.4484 45.0947H77.4454ZM94.0665 12.1563C94.0665 12.3459 94.0487 12.537 94.0709 12.7222C94.1154 13.0881 94.2828 13.4096 94.4946 13.7058C94.7553 14.0717 95.0546 14.3813 95.4916 14.5576C95.8619 14.7072 96.253 14.7221 96.6293 14.8213C96.6574 14.8287 96.69 14.8287 96.7181 14.8213C97.2174 14.7072 97.7299 14.6465 98.1817 14.3621C98.7195 14.0214 99.0928 13.5592 99.2602 12.9518C99.3476 12.6333 99.3965 12.3044 99.3935 11.9608C99.3891 11.5415 99.2661 11.1579 99.0898 10.8112C98.8765 10.3905 98.5151 10.072 98.0603 9.89425C97.9625 9.85573 97.884 9.75944 97.7729 9.76981C97.601 9.78759 97.4381 9.73278 97.2781 9.70019C96.6841 9.57724 96.1004 9.64982 95.5493 9.83796C94.8531 10.075 94.4442 10.6379 94.1598 11.2986C94.0398 11.5786 94.062 11.866 94.0665 12.1563ZM102.759 27.616C102.453 27.616 102.079 27.616 101.707 27.616C101.654 27.616 101.574 27.5819 101.558 27.6663C101.542 27.7463 101.598 27.7982 101.672 27.8234C101.71 27.8367 101.756 27.8382 101.79 27.8589C101.906 27.933 102.097 27.9256 102.141 28.0619C102.196 28.2292 102.254 28.4026 102.251 28.5907C102.238 29.2588 102.242 29.9284 102.232 30.5965C102.226 30.9816 102.213 31.3653 102.187 31.749C102.17 32.0171 102.127 32.2808 101.768 32.303C101.724 32.306 101.682 32.3401 101.638 32.3564C101.589 32.3756 101.587 32.4141 101.587 32.4571C101.587 32.5075 101.614 32.5386 101.656 32.5475C101.787 32.5771 101.922 32.6067 102.056 32.5786C102.312 32.5267 102.567 32.5178 102.827 32.5326C103.095 32.5489 103.367 32.6289 103.633 32.5149C103.675 32.4971 103.764 32.546 103.747 32.4556C103.738 32.4023 103.724 32.3267 103.644 32.3075C103.577 32.2912 103.506 32.2838 103.441 32.2675C103.121 32.1875 103.01 32.2245 103.001 31.8142C102.993 31.4675 103.013 31.1209 102.983 30.7743C102.975 30.6898 102.989 30.4987 103.13 30.515C103.375 30.5446 103.654 30.5121 103.845 30.7224C103.947 30.8335 104.026 30.9668 104.112 31.0913C104.362 31.4572 104.606 31.8305 104.928 32.1386C105.082 32.2867 105.202 32.4927 105.432 32.5326C105.829 32.6008 106.227 32.5815 106.623 32.5149C106.673 32.506 106.763 32.546 106.765 32.4586C106.765 32.3801 106.704 32.3193 106.624 32.2941C106.58 32.2793 106.532 32.2675 106.486 32.2675C106.177 32.2645 105.943 32.1179 105.719 31.9134C105.199 31.4364 104.829 30.835 104.359 30.318C104.324 30.278 104.332 30.2543 104.362 30.2336C104.495 30.1417 104.58 30.0025 104.692 29.8899C105.075 29.5062 105.266 29.0633 105.132 28.5063C105.024 28.0559 104.74 27.8056 104.306 27.7063C103.818 27.5937 103.319 27.6708 102.762 27.6145L102.759 27.616ZM77.9802 27.6189C77.9802 27.6189 77.9802 27.6174 77.9802 27.616C77.7491 27.616 77.5195 27.6086 77.2884 27.6189C77.1936 27.6234 77.0351 27.5449 77.0143 27.6841C76.9906 27.8382 77.1803 27.8293 77.2751 27.8945C77.2795 27.8974 77.2869 27.8945 77.2928 27.8959C77.638 27.9656 77.6513 27.9789 77.6884 28.33C77.7002 28.4411 77.7032 28.5537 77.7032 28.6663C77.7002 29.2158 77.6943 29.7669 77.6913 30.3165C77.6884 30.9061 77.7269 31.4957 77.6247 32.0823C77.6069 32.1845 77.5832 32.2275 77.478 32.2245C77.3536 32.2201 77.2558 32.2956 77.1551 32.3564C77.1092 32.3845 77.0958 32.4319 77.1018 32.4793C77.1092 32.5386 77.161 32.543 77.2099 32.5475C77.3565 32.5593 77.5047 32.5741 77.6528 32.5534C78.0113 32.503 78.3683 32.543 78.7268 32.5667C79.0661 32.5889 79.4068 32.5875 79.7401 32.4867C79.9934 32.4112 80.2052 32.266 80.3845 32.0868C80.623 31.8497 80.7963 31.5698 80.8096 31.2083C80.8245 30.798 80.6511 30.4587 80.3904 30.1847C80.2186 30.0039 80.0349 29.7595 79.7134 29.804C79.6793 29.8084 79.6231 29.8306 79.6082 29.7743C79.5919 29.7195 79.6556 29.7121 79.6823 29.6914C79.9727 29.4632 80.183 29.1803 80.2541 28.8159C80.34 28.3774 80.2245 27.9182 79.6853 27.7508C79.309 27.6337 78.9209 27.6234 78.5313 27.6189C78.3476 27.616 78.1654 27.6189 77.9817 27.6189H77.9802ZM70.7466 29.8232C70.8044 30.2573 70.6592 30.8098 70.8518 31.3564C71.0074 31.7964 71.2503 32.1445 71.6207 32.4156C71.954 32.66 72.3525 32.6082 72.7287 32.6571C72.9776 32.6897 73.2131 32.6097 73.4516 32.5564C73.745 32.4897 74.0012 32.3608 74.2027 32.1371C74.5923 31.706 74.7908 31.1994 74.7938 30.6157C74.7967 29.8588 74.8071 29.1018 74.8115 28.3433C74.813 28.09 74.9123 27.8678 75.21 27.8589C75.2323 27.8589 75.253 27.8396 75.2767 27.8352C75.3463 27.8204 75.3759 27.773 75.3759 27.7078C75.3759 27.6382 75.3093 27.656 75.2708 27.6382C75.2041 27.6071 75.133 27.6041 75.0619 27.61C74.6012 27.6426 74.139 27.61 73.6783 27.6189C73.625 27.6189 73.5479 27.5849 73.5272 27.6634C73.505 27.7448 73.5701 27.7878 73.6324 27.8278C73.7138 27.8811 73.8057 27.89 73.8975 27.8974C74.0694 27.9122 74.1523 27.9952 74.1716 28.1744C74.1953 28.3922 74.216 28.61 74.2131 28.8292C74.2057 29.2292 74.1938 29.6292 74.182 30.0291C74.1746 30.278 74.2205 30.5313 74.2116 30.7831C74.1908 31.3357 74.062 31.8334 73.5346 32.1386C73.0146 32.4408 72.5095 32.3801 72.0695 31.9475C71.7481 31.632 71.6103 31.235 71.6147 30.7787C71.6221 29.958 71.6088 29.1373 71.6058 28.3181C71.6058 28.0752 71.6577 28.007 71.8903 27.9182C71.954 27.893 72.0162 27.8648 72.0799 27.8396C72.148 27.813 72.1806 27.7537 72.1702 27.6915C72.1584 27.6145 72.0828 27.6545 72.0369 27.653C71.7599 27.6411 71.4844 27.6337 71.2074 27.6293C70.8815 27.6234 70.557 27.6234 70.2311 27.6189C70.1763 27.6189 70.1156 27.6115 70.0889 27.6663C70.0548 27.733 70.1156 27.7715 70.1526 27.8159C70.1926 27.8634 70.2371 27.8841 70.3022 27.893C70.4119 27.9078 70.517 27.9478 70.6267 27.97C70.6726 27.9789 70.6815 27.9996 70.6859 28.0396C70.7111 28.2248 70.7526 28.4085 70.7496 28.5981C70.7422 28.9714 70.7481 29.3432 70.7481 29.8277L70.7466 29.8232ZM105.796 46.0872C105.741 45.9835 105.882 45.9717 105.886 45.8932C105.898 45.6932 105.901 45.4932 105.919 45.2947C105.932 45.1332 105.876 45.0562 105.71 45.0932C105.442 45.154 105.169 45.1258 104.9 45.151C104.359 45.2043 103.821 45.1614 103.285 45.0947C103.146 45.0769 103.001 45.0799 102.86 45.0962C102.781 45.1051 102.684 45.1318 102.688 45.2517C102.693 45.3747 102.767 45.4117 102.876 45.4088C102.947 45.4073 103.018 45.4147 103.09 45.4103C103.218 45.4014 103.27 45.4814 103.297 45.5851C103.346 45.7732 103.355 45.9658 103.353 46.1598C103.344 47.2916 103.395 48.4249 103.298 49.5566C103.287 49.69 103.252 49.7536 103.116 49.7448C102.949 49.7329 102.844 49.8129 102.78 49.964C102.734 50.0721 102.731 50.121 102.879 50.1373C103.091 50.1596 103.282 50.0796 103.485 50.0603C103.949 50.0188 104.406 50.1403 104.866 50.1003C105.181 50.0721 105.495 50.1832 105.812 50.0929C105.889 50.0707 105.96 50.0277 105.969 49.9729C106.015 49.6944 106.1 49.4189 106.061 49.1315C106.054 49.0767 106.042 49.0248 105.986 49.007C105.92 48.9863 105.876 49.0204 105.84 49.0767C105.812 49.1211 105.79 49.1611 105.784 49.2189C105.759 49.4633 105.426 49.7611 105.184 49.7596C104.959 49.7581 104.735 49.7448 104.51 49.7462C104.411 49.7462 104.355 49.7048 104.329 49.6174C104.286 49.4737 104.227 49.3315 104.215 49.1848C104.177 48.6885 104.232 48.1923 104.224 47.6945C104.224 47.6575 104.212 47.5968 104.279 47.6116C104.595 47.6812 104.916 47.5805 105.233 47.6486C105.34 47.6708 105.392 47.7271 105.412 47.816C105.436 47.9242 105.473 48.0264 105.498 48.133C105.515 48.2027 105.512 48.2634 105.605 48.2471C105.691 48.2308 105.746 48.1715 105.729 48.0901C105.72 48.0471 105.734 48.016 105.732 47.9804C105.723 47.7256 105.783 47.4783 105.809 47.2279C105.815 47.1672 105.857 47.0724 105.774 47.0383C105.689 47.0042 105.609 47.0472 105.546 47.1138C105.439 47.2264 105.31 47.2768 105.152 47.2783C104.897 47.2812 104.644 47.2872 104.389 47.2812C104.229 47.2783 104.189 47.2309 104.198 47.0768C104.214 46.7642 104.218 46.4502 104.209 46.1376C104.205 45.9584 104.149 45.7836 104.209 45.6014C104.229 45.5421 104.236 45.5125 104.306 45.5139C104.565 45.5169 104.827 45.4947 105.085 45.5199C105.224 45.5332 105.418 45.5021 105.461 45.7347C105.492 45.9021 105.626 46.0339 105.771 46.0902C105.775 46.0917 105.78 46.0902 105.796 46.0872ZM79.7934 14.6495C80.0704 14.6554 80.3489 14.7013 80.6245 14.6554C80.6911 14.6435 80.7978 14.6332 80.7933 14.5635C80.7874 14.4865 80.6911 14.4465 80.6052 14.4376C80.5874 14.4362 80.5697 14.4376 80.5519 14.4347C80.2926 14.4169 80.0749 14.3132 79.9416 14.0851C79.7401 13.7429 79.6142 13.3636 79.4586 12.9992C79.3416 12.7237 79.2586 12.4318 79.1342 12.1608C78.8987 11.6467 78.7698 11.0927 78.5046 10.589C78.3402 10.2779 78.3269 9.9061 78.0943 9.61279C78.0054 9.50168 77.9832 9.53428 77.9165 9.59501C77.8484 9.65723 77.8173 9.74019 77.7832 9.82166C77.6913 10.0365 77.598 10.2513 77.5106 10.4675C77.3328 10.912 77.158 11.3564 76.9862 11.8023C76.8692 12.1059 76.7699 12.417 76.644 12.7178C76.4959 13.0703 76.33 13.417 76.2085 13.7799C76.0944 14.1191 75.9152 14.3828 75.5137 14.408C75.453 14.4124 75.3952 14.4524 75.3374 14.4791C75.3004 14.4954 75.2589 14.5102 75.2648 14.565C75.2708 14.6124 75.3034 14.6302 75.3404 14.6524C75.3952 14.6835 75.4515 14.685 75.5108 14.6821C75.7937 14.6732 76.0766 14.6672 76.3596 14.6524C76.5196 14.6435 76.6796 14.6954 76.8366 14.6524C76.9403 14.6243 77.1269 14.6539 77.1299 14.5517C77.1343 14.4317 76.9418 14.4228 76.844 14.4154C76.6559 14.4006 76.6396 14.3013 76.6499 14.1591C76.6544 14.0954 76.6633 14.0347 76.6781 13.971C76.727 13.7606 76.8499 13.5799 76.8766 13.3562C76.8944 13.2081 76.9966 13.0985 77.1995 13.0748C77.6069 13.0274 78.0143 13.0733 78.4187 13.0422C78.5891 13.0288 78.6587 13.097 78.7061 13.2496C78.7905 13.5251 78.8913 13.7992 78.995 14.0673C79.0542 14.2214 79.0335 14.3132 78.9564 14.4317C78.8661 14.571 78.9046 14.6435 79.0661 14.6465C79.309 14.651 79.5505 14.6465 79.7934 14.6465V14.6495ZM95.8219 45.5302C95.9152 45.5214 95.9449 45.4177 96.0145 45.4147C96.2708 45.4028 96.5152 45.4399 96.7196 45.6191C96.93 45.8028 97.1048 46.0013 97.1107 46.3035C97.1137 46.425 97.2277 46.4605 97.3225 46.4724C97.4336 46.4872 97.4396 46.3909 97.4322 46.3124C97.4114 46.0991 97.4707 45.8917 97.4766 45.6799C97.4899 45.2577 97.4662 45.2399 97.0559 45.1569C96.4263 45.0295 95.7923 45.0429 95.1568 45.0666C94.7672 45.0814 94.3968 45.1999 94.062 45.3925C93.3717 45.7925 92.9836 46.4131 92.8769 47.1938C92.791 47.8205 92.9243 48.4056 93.2591 48.9567C93.748 49.7596 94.5124 50.0573 95.3819 50.161C95.7197 50.201 96.0678 50.164 96.41 50.164C96.6737 50.164 96.9226 50.0929 97.1611 49.9892C97.287 49.9344 97.3774 49.8396 97.4099 49.6781C97.4485 49.487 97.4499 49.2944 97.4811 49.1048C97.4988 48.9967 97.5522 48.8411 97.4588 48.7982C97.327 48.7374 97.2722 48.8959 97.21 48.9937C97.207 48.9982 97.204 49.0041 97.2011 49.0085C97.0677 49.3433 96.8248 49.5655 96.4959 49.7077C96.3774 49.7596 96.2515 49.7388 96.136 49.7788C95.856 49.8751 95.5582 49.8381 95.3168 49.7255C94.7835 49.4781 94.2857 49.1759 94.0472 48.5715C93.948 48.3197 93.8398 48.0693 93.8132 47.8056C93.7598 47.296 93.7821 46.7909 94.0413 46.3228C94.0976 46.2221 94.108 46.0902 94.2028 46.0132C94.2991 45.9347 94.342 45.8102 94.4487 45.7421C94.5479 45.6784 94.6353 45.5628 94.739 45.551C94.8486 45.5377 94.9123 45.4577 95.016 45.4428C95.2205 45.4147 95.4249 45.388 95.6323 45.3777C95.7508 45.3717 95.8308 45.3954 95.8219 45.5317V45.5302ZM96.5937 30.0306C96.5937 30.3861 96.5996 30.7402 96.5922 31.0957C96.5848 31.4142 96.6115 31.7342 96.5389 32.0497C96.5226 32.1223 96.5122 32.1608 96.4278 32.1742C96.2945 32.1964 96.173 32.2556 96.0604 32.3371C96.0041 32.3771 95.9819 32.4304 95.9834 32.4808C95.9863 32.5415 96.0515 32.5356 96.1019 32.5519C96.3137 32.623 96.5196 32.5682 96.7255 32.5445C97.1122 32.5015 97.4944 32.6023 97.8825 32.5712C98.2351 32.543 98.5921 32.5949 98.9461 32.5519C99.0469 32.5401 99.1846 32.5312 99.2009 32.4082C99.232 32.1727 99.3106 31.9401 99.278 31.6957C99.2661 31.6098 99.2854 31.4794 99.2009 31.4675C99.1195 31.4557 99.0987 31.5831 99.0661 31.6631C98.9669 31.9134 98.8617 32.1593 98.5447 32.2023C98.2054 32.2482 97.8721 32.2023 97.5388 32.1564C97.4796 32.1475 97.4529 32.0971 97.4648 32.0349C97.5018 31.8483 97.447 31.666 97.444 31.4824C97.4366 31.069 97.4336 30.6543 97.4336 30.241C97.4336 30.1639 97.4485 30.0884 97.561 30.0913C97.8573 30.0973 98.1521 30.0973 98.4484 30.0987C98.5225 30.0987 98.5521 30.1313 98.5773 30.2098C98.6173 30.3387 98.6513 30.4735 98.7239 30.5935C98.7624 30.6572 98.8113 30.7357 98.8706 30.718C98.9135 30.7046 98.9461 30.6039 98.955 30.5387C98.995 30.2617 99.0276 29.9832 99.0558 29.7047C99.075 29.5166 99.0469 29.5018 98.8647 29.5684C98.7002 29.6277 98.5506 29.7373 98.3654 29.7373C98.1047 29.7373 97.8455 29.7565 97.5848 29.7477C97.4736 29.7447 97.4381 29.7121 97.4381 29.6129C97.4381 29.1284 97.4381 28.6426 97.4322 28.1581C97.4322 28.0145 97.5018 27.9759 97.6322 27.9819C97.8677 27.9922 98.1047 27.9967 98.3417 28.0011C98.6187 28.007 98.7432 28.1211 98.7817 28.3952C98.7921 28.4752 98.8335 28.5477 98.9195 28.57C99.0187 28.5966 99.0735 28.5196 99.0824 28.4485C99.112 28.1804 99.1713 27.9137 99.152 27.6411C99.1476 27.5819 99.1357 27.5552 99.0676 27.576C98.6647 27.7004 98.2484 27.6515 97.8381 27.6515C97.247 27.653 96.6559 27.6293 96.0634 27.616C95.9715 27.6145 95.8634 27.6219 95.8575 27.7271C95.853 27.8159 95.9656 27.8308 96.0397 27.853C96.1774 27.8945 96.3182 27.9285 96.4589 27.9626C96.5004 27.973 96.5389 27.9715 96.5433 28.0293C96.5507 28.127 96.57 28.2248 96.5759 28.3241C96.61 28.8914 96.5922 29.4603 96.5922 30.0276L96.5937 30.0306ZM66.0388 9.66019C65.6463 9.61575 65.2315 9.68093 64.8389 9.78018C64.2078 9.93721 63.7308 10.3387 63.4227 10.9223C63.279 11.1949 63.1576 11.4852 63.122 11.7845C63.0494 12.4052 63.1887 12.9992 63.5042 13.5414C63.7871 14.0273 64.2108 14.3532 64.7352 14.5532C65.2285 14.7413 65.75 14.7354 66.2625 14.7724C66.5825 14.7961 66.8936 14.6954 67.2121 14.6835C67.4417 14.6761 67.5884 14.5739 67.6269 14.3295C67.6609 14.1132 67.7187 13.9014 67.7617 13.6866C67.7824 13.5858 67.7839 13.457 67.6817 13.4214C67.5721 13.3829 67.5395 13.5147 67.4906 13.5918C67.4624 13.6362 67.4313 13.6806 67.4076 13.7281C67.1484 14.2317 66.6773 14.3858 66.1722 14.3991C65.6892 14.4124 65.2374 14.2495 64.87 13.9132C64.3915 13.4762 64.079 12.9651 64.0923 12.2852C64.0997 11.9148 64.0567 11.5445 64.1827 11.1816C64.4745 10.3461 64.9708 10.0128 65.824 9.9535C66.1633 9.9298 66.4758 10.0113 66.7795 10.1283C67.0832 10.2439 67.3143 10.4424 67.3513 10.8023C67.3587 10.8779 67.3765 10.9594 67.4195 11.0334C67.458 11.1001 67.5084 11.0986 67.5676 11.0971C67.6402 11.0956 67.655 11.0438 67.6595 10.989C67.6832 10.6438 67.7054 10.2987 67.7291 9.9535C67.735 9.8587 67.7054 9.78611 67.6017 9.78463C67.0847 9.78018 66.581 9.63353 66.0388 9.65723V9.66019ZM85.6256 9.74315C85.6256 9.74315 85.6256 9.74611 85.6256 9.74759C85.4241 9.74759 85.2241 9.74315 85.0227 9.74908C84.9501 9.75056 84.8434 9.70463 84.8227 9.83203C84.8064 9.93721 84.8449 10.0024 84.956 10.0468C85.0167 10.0705 85.1086 10.1061 85.0479 10.2483C84.9886 10.3861 84.9442 10.5224 84.8597 10.6542C84.676 10.9431 84.5235 11.2497 84.3575 11.5504C84.2835 11.6838 84.2183 11.8245 84.1324 11.9489C84.0302 12.0985 83.9546 12.0897 83.8998 11.9223C83.842 11.7445 83.7457 11.5919 83.648 11.4378C83.4865 11.1801 83.3309 10.9179 83.1887 10.6468C83.1206 10.5179 83.0954 10.3461 82.9473 10.2676C82.8243 10.2039 82.8658 10.1505 82.9473 10.0957C82.9858 10.0705 83.0287 10.0528 83.0702 10.0291C83.1576 9.98017 83.2006 9.90018 83.1813 9.80685C83.1621 9.70908 83.0643 9.74019 83.0021 9.73871C82.5325 9.72685 82.0614 9.72241 81.5903 9.71797C81.4807 9.71797 81.3266 9.71204 81.3148 9.83499C81.3044 9.9461 81.4466 10.0083 81.5563 10.0483C81.5888 10.0602 81.6259 10.0616 81.6599 10.0602C81.7429 10.0572 81.8125 10.0913 81.8703 10.1416C82.0584 10.3046 82.2347 10.4794 82.3666 10.6942C82.611 11.0927 82.8584 11.4882 83.0939 11.8911C83.2154 12.0985 83.3532 12.2926 83.408 12.54C83.4732 12.8363 83.4287 13.1296 83.4524 13.4229C83.4746 13.7058 83.4139 13.9828 83.3665 14.2599C83.3576 14.3117 83.3398 14.3236 83.2924 14.3354C83.1798 14.365 83.0687 14.4036 82.9606 14.445C82.9117 14.4643 82.8658 14.4969 82.8643 14.5606C82.8613 14.6421 82.9369 14.6435 82.9843 14.6702C83.011 14.6865 83.0524 14.6776 83.088 14.6776C83.5887 14.6747 84.0894 14.611 84.5916 14.6806C84.716 14.6984 84.8479 14.7013 84.9738 14.651C85.0153 14.6347 85.0493 14.6243 85.0642 14.5813C85.0864 14.5161 85.0286 14.5013 84.9945 14.4776C84.8997 14.4095 84.7931 14.3739 84.6731 14.3621C84.5279 14.3473 84.3916 14.3162 84.3546 14.1295C84.2701 13.7103 84.2672 13.2866 84.3027 12.8659C84.3264 12.5859 84.3649 12.3074 84.5249 12.0482C84.6331 11.8719 84.7664 11.7119 84.8656 11.5327C85.0286 11.2408 85.1693 10.9357 85.3589 10.6586C85.5397 10.395 85.7234 10.1357 86.0789 10.0883C86.187 10.0735 86.2878 10.0246 86.3752 9.95202C86.4241 9.91203 86.4655 9.87055 86.4478 9.80389C86.43 9.73574 86.3663 9.74463 86.3144 9.74463C86.0833 9.74315 85.8537 9.74463 85.6226 9.74463L85.6256 9.74315ZM90.8623 12.0852C90.8623 11.7771 90.8563 11.4704 90.8637 11.1623C90.8711 10.8616 90.8504 10.5594 90.886 10.2587C90.8949 10.1787 90.9023 10.1031 91.0134 10.1076C91.3378 10.1179 91.6637 10.1076 91.9866 10.1402C92.2622 10.1668 92.2651 10.1935 92.2814 10.4705C92.2814 10.4824 92.2799 10.4957 92.2814 10.5061C92.3081 10.589 92.3244 10.6868 92.4488 10.666C92.5555 10.6483 92.6577 10.6275 92.6547 10.4809C92.6503 10.2809 92.6488 10.0794 92.6577 9.87944C92.6636 9.72982 92.591 9.68241 92.4636 9.71797C92.3066 9.76093 92.1496 9.74759 91.9911 9.74759C91.323 9.75056 90.6549 9.75648 89.9868 9.75352C89.4816 9.75204 88.9705 9.82611 88.4772 9.64982C88.4121 9.62612 88.3558 9.65871 88.3306 9.715C88.295 9.79352 88.2491 9.8661 88.2328 9.95499C88.2002 10.1283 88.1795 10.3105 88.1084 10.469C88.0506 10.5949 88.1173 10.6112 88.1913 10.6305C88.3173 10.6616 88.5158 10.5238 88.5484 10.3979C88.5913 10.2335 88.6772 10.1342 88.8683 10.1372C89.1379 10.1402 89.4075 10.1372 89.6786 10.109C90.0623 10.0676 90.0786 10.0957 90.0786 10.4927C90.0786 11.3682 90.0786 12.2437 90.0697 13.1192C90.0668 13.3873 90.0357 13.6569 90.0031 13.9236C89.9749 14.1517 89.8994 14.3562 89.6312 14.408C89.5883 14.4169 89.5498 14.451 89.5112 14.4761C89.4668 14.5043 89.3764 14.5013 89.4135 14.5873C89.4387 14.648 89.495 14.6598 89.5705 14.6658C89.9957 14.6984 90.4208 14.6169 90.8474 14.6613C91.0519 14.6821 91.2608 14.6732 91.4667 14.6598C91.5363 14.6554 91.6563 14.6524 91.6474 14.5339C91.64 14.4332 91.5555 14.411 91.4607 14.4021C91.0548 14.365 90.9586 14.2791 90.8978 13.9088C90.8904 13.8629 90.8889 13.814 90.8845 13.7681C90.8356 13.2066 90.8667 12.6452 90.8608 12.0837L90.8623 12.0852ZM87.704 27.6174C87.4921 27.6174 87.2507 27.616 87.0077 27.6189C86.9662 27.6189 86.9085 27.5878 86.8848 27.65C86.8596 27.7152 86.8951 27.773 86.947 27.7997C87.0625 27.8589 87.184 27.9048 87.3025 27.9567C87.3514 27.9774 87.4092 27.9937 87.4121 28.0574C87.4195 28.2204 87.4714 28.3759 87.4699 28.5433C87.4625 29.5906 87.4773 30.6365 87.461 31.6838C87.4566 31.946 87.4151 32.2379 87.0507 32.2823C87.0077 32.2882 86.9662 32.3193 86.9262 32.3416C86.8581 32.3801 86.8388 32.423 86.9085 32.4852C87.0018 32.5682 87.1114 32.5815 87.227 32.586C87.5336 32.5993 87.8373 32.5401 88.141 32.5415C88.6965 32.5415 89.252 32.5667 89.8075 32.5801C89.9438 32.583 90.0757 32.5608 90.2045 32.5164C90.2727 32.4927 90.3008 32.4541 90.2905 32.3845C90.2727 32.2764 90.3067 32.1771 90.3304 32.0749C90.369 31.9001 90.4016 31.7223 90.326 31.549C90.3127 31.5164 90.3556 31.4587 90.283 31.4527C90.2238 31.4483 90.1986 31.4942 90.1838 31.5372C90.1468 31.6379 90.1171 31.7431 90.0416 31.8201C89.9112 31.9534 89.8638 32.183 89.6357 32.2053C89.2683 32.2393 88.9024 32.2408 88.5409 32.1401C88.4402 32.1119 88.3958 32.0571 88.375 31.9668C88.3187 31.7194 88.301 31.4675 88.3039 31.2142C88.3143 30.2854 88.3261 29.3566 88.3336 28.4278C88.3365 28.0322 88.3336 28.0337 88.7054 27.9167C88.738 27.9063 88.7691 27.8885 88.8017 27.8752C88.8728 27.8471 88.9602 27.8263 88.9394 27.7241C88.9187 27.6204 88.8298 27.616 88.7439 27.6189C88.4076 27.6278 88.0699 27.6515 87.7025 27.6189L87.704 27.6174ZM71.1629 9.73574C70.9022 9.73574 70.6429 9.73426 70.3822 9.73574C70.323 9.73574 70.2622 9.755 70.2578 9.83351C70.2533 9.90166 70.2859 9.93721 70.3526 9.96091C70.4519 9.9935 70.5407 10.0616 70.6415 10.0794C70.7866 10.1061 70.8385 10.2009 70.8829 10.3179C70.9185 10.4142 70.9303 10.512 70.9303 10.6127C70.9289 11.3638 70.9303 12.1163 70.9303 12.8674C70.9303 13.174 70.8977 13.4777 70.8696 13.7829C70.8385 14.1251 70.7348 14.3873 70.3615 14.4717C70.317 14.4821 70.2445 14.5206 70.2652 14.5961C70.283 14.6613 70.3319 14.6643 70.4 14.6702C70.6785 14.6895 70.9555 14.6584 71.2325 14.648C71.7658 14.6287 72.2962 14.6761 72.828 14.6909C73.0635 14.6969 73.3005 14.7102 73.5331 14.6495C73.6398 14.6213 73.6961 14.5621 73.7079 14.4569C73.7287 14.2836 73.7553 14.1102 73.7627 13.9369C73.7672 13.8288 73.8294 13.6599 73.6872 13.6318C73.5405 13.6021 73.5242 13.7784 73.4827 13.888C73.4072 14.0895 73.2783 14.2836 73.0724 14.3058C72.7228 14.3428 72.3628 14.3739 72.0162 14.2628C71.9273 14.2347 71.8355 14.2006 71.8192 14.0851C71.791 13.8866 71.7347 13.6881 71.7332 13.4881C71.7273 12.5592 71.754 11.6304 71.7303 10.7016C71.7199 10.309 71.8118 10.0513 72.2236 9.96832C72.2932 9.9535 72.3821 9.90906 72.3762 9.82018C72.3747 9.79055 72.2769 9.76685 72.2221 9.74315C72.1554 9.715 72.0828 9.71056 72.0117 9.72093C71.7288 9.76093 71.4444 9.71648 71.1614 9.73574H71.1629ZM86.8374 47.102C86.8685 47.976 86.79 48.7552 86.7263 49.5344C86.7203 49.607 86.6877 49.644 86.6314 49.687C86.5011 49.7848 86.3174 49.7833 86.2078 49.9166C86.1056 50.0396 86.1189 50.0707 86.2744 50.1047C86.5766 50.1714 86.8744 50.0707 87.1736 50.081C87.4877 50.0914 87.8032 50.0633 88.1158 50.127C88.1884 50.1418 88.2921 50.1358 88.3365 50.0381C88.3558 49.9966 88.4284 49.9759 88.3824 49.9062C88.3306 49.8277 88.2595 49.8114 88.1736 49.8188C88.1202 49.8233 88.061 49.8322 88.0151 49.8144C87.901 49.767 87.7321 49.8099 87.6966 49.6233C87.6314 49.2692 87.6003 48.9122 87.6018 48.5537C87.6047 47.6486 87.618 46.7435 87.621 45.8384C87.621 45.6502 87.7084 45.5377 87.8758 45.4902C87.9484 45.4695 88.0002 45.4177 88.0802 45.4043C88.1736 45.388 88.2017 45.2903 88.1899 45.1925C88.175 45.0844 88.0936 45.111 88.0254 45.1095C87.8536 45.1095 87.6832 45.1184 87.5114 45.1258C87.261 45.1362 87.0092 45.1421 86.7574 45.1036C86.6137 45.0814 86.4626 45.0962 86.3159 45.111C86.2493 45.1184 86.1856 45.1777 86.1767 45.2517C86.1693 45.314 86.2374 45.3184 86.2804 45.3466C86.4004 45.4265 86.5322 45.4591 86.667 45.4947C86.7114 45.5065 86.7618 45.511 86.7707 45.5732C86.7914 45.7421 86.8285 45.9095 86.8329 46.0784C86.8418 46.4502 86.8359 46.8235 86.8359 47.105L86.8374 47.102ZM83.2835 30.0943C83.3132 30.6706 83.2554 31.235 83.2184 31.7994C83.205 32.0127 83.1798 32.2719 82.8569 32.2882C82.8095 32.2912 82.7591 32.3297 82.7206 32.3638C82.6303 32.4423 82.6762 32.5193 82.7606 32.5445C82.8643 32.5756 82.9843 32.6023 83.0865 32.5786C83.3502 32.5193 83.6124 32.5341 83.8761 32.5312C84.1487 32.5282 84.4183 32.5889 84.6894 32.5519C84.762 32.5415 84.8612 32.5519 84.8582 32.4408C84.8553 32.3386 84.7649 32.3178 84.682 32.3075C84.5783 32.2941 84.476 32.2779 84.3783 32.2393C84.1235 32.1386 84.1205 31.8927 84.1087 31.6927C84.0435 30.5402 84.1161 29.3877 84.1116 28.2337C84.1116 28.0885 84.1916 27.9922 84.3294 27.9285C84.4138 27.89 84.5072 27.8796 84.5901 27.8308C84.6583 27.7908 84.6849 27.7522 84.679 27.6797C84.6701 27.5804 84.5931 27.616 84.5442 27.616C83.965 27.6145 83.3858 27.616 82.8065 27.616C82.7532 27.616 82.6865 27.6071 82.6673 27.6634C82.6436 27.73 82.7251 27.7552 82.7547 27.8026C82.7799 27.8441 82.8302 27.8234 82.8702 27.8308C83.1858 27.8959 83.2613 27.9759 83.2658 28.2929C83.2746 28.8959 83.3117 29.4988 83.2821 30.0928L83.2835 30.0943ZM92.0859 27.6174C92.0474 27.6174 92.0222 27.6115 92 27.6174C91.9511 27.6323 91.8607 27.5656 91.8607 27.6619C91.8607 27.7271 91.8829 27.8145 91.9807 27.8293C92.0385 27.8382 92.1007 27.8426 92.1525 27.8648C92.2399 27.9019 92.357 27.9108 92.3807 28.0307C92.4014 28.1404 92.4192 28.2515 92.4192 28.3611C92.4088 29.484 92.4666 30.6069 92.3851 31.7283C92.3733 31.8912 92.3599 32.066 92.2918 32.2082C92.2488 32.2986 92.0829 32.2379 91.9763 32.2719C91.9333 32.2853 91.9096 32.3149 91.8785 32.3416C91.7703 32.4364 91.8489 32.5193 91.9214 32.5401C92.0355 32.5712 92.1614 32.6186 92.2814 32.583C92.5303 32.5104 92.7821 32.5193 93.034 32.5252C93.3036 32.5326 93.5747 32.5682 93.8443 32.546C93.9065 32.5415 94.0146 32.5519 94.0176 32.4556C94.022 32.3623 93.942 32.3208 93.8532 32.3045C93.7332 32.2838 93.6147 32.263 93.4961 32.2349C93.4428 32.2216 93.3613 32.2097 93.3554 32.149C93.345 32.0245 93.2828 31.912 93.2769 31.792C93.2221 30.5861 93.2754 29.3788 93.271 28.173C93.271 28.0411 93.3288 27.967 93.4517 27.927C93.5524 27.8945 93.6591 27.8826 93.7524 27.8278C93.8146 27.7922 93.8546 27.7537 93.8428 27.6752C93.828 27.576 93.7495 27.6204 93.7035 27.6204C93.1584 27.6145 92.6132 27.6619 92.0844 27.6174H92.0859Z" fill="#215196"/>
<path d="M84.9797 38.8137C91.7763 38.8137 98.5728 38.8137 105.369 38.8137C105.725 38.8137 106.079 38.8196 106.434 38.8048C106.599 38.7989 106.645 38.8759 106.669 39.0137C106.692 39.1603 106.615 39.2048 106.491 39.2374C106.275 39.2937 106.057 39.2744 105.839 39.2744C100.623 39.2744 95.4071 39.2714 90.1912 39.27C81.6777 39.2685 73.1643 39.2685 64.6508 39.2685C64.3012 39.2685 63.9531 39.2714 63.6035 39.2714C63.5738 39.2714 63.5398 39.2788 63.516 39.2655C63.4168 39.2122 63.2287 39.2907 63.2257 39.0922C63.2227 38.9055 63.3472 38.8063 63.562 38.8063C66.5751 38.8063 69.5882 38.8107 72.6013 38.8107C76.7284 38.8107 80.8541 38.8107 84.9812 38.8107L84.9797 38.8137Z" fill="#FFFFFE"/>
<path d="M84.9634 21.369C78.2809 21.369 71.5969 21.369 64.9144 21.369C64.5115 21.369 64.11 21.3705 63.7071 21.3735C63.6123 21.3735 63.519 21.3601 63.4271 21.3364C63.3516 21.3157 63.2301 21.3409 63.2257 21.2386C63.2212 21.1231 63.2745 21.0061 63.3886 20.9424C63.4627 20.9009 63.5486 20.8935 63.6301 20.9039C64.1663 20.969 64.7056 20.932 65.2433 20.932C78.4616 20.9335 91.6799 20.9335 104.898 20.9335C105.39 20.9335 105.88 20.9276 106.372 20.9246C106.6 20.9246 106.651 20.9616 106.669 21.132C106.68 21.2579 106.651 21.3157 106.503 21.3349C106.077 21.3897 105.652 21.3735 105.227 21.3735C98.4735 21.3764 91.7185 21.3749 84.9649 21.3749V21.3705L84.9634 21.369Z" fill="#FFFFFE"/>
<path d="M64.7885 27.6471C65.1974 27.6471 65.6048 27.65 66.0136 27.6471C66.5069 27.6412 66.9913 27.7182 67.418 27.9611C67.9024 28.2382 68.2535 28.6515 68.4208 29.1981C68.5334 29.5655 68.6119 29.9491 68.5364 30.3224C68.4312 30.8424 68.3097 31.3757 67.9142 31.7727C67.6683 32.0201 67.3676 32.1905 67.0506 32.3401C66.4832 32.6097 65.8847 32.5949 65.2833 32.5845C64.8255 32.5771 64.3708 32.4927 63.9115 32.5327C63.753 32.546 63.593 32.543 63.4345 32.5519C63.3457 32.5578 63.276 32.5253 63.2612 32.4408C63.2479 32.3608 63.316 32.3164 63.3812 32.2823C63.4019 32.2719 63.4271 32.2601 63.4479 32.2631C63.6967 32.2942 63.7293 32.1386 63.7649 31.9431C63.8923 31.2453 63.7856 30.5447 63.8152 29.8454C63.8286 29.521 63.8049 29.1936 63.8197 28.8692C63.833 28.5907 63.7782 28.3211 63.7575 28.0471C63.753 27.9789 63.7056 27.9611 63.6553 27.9404C63.5456 27.893 63.4256 27.8841 63.3131 27.8515C63.2316 27.8278 63.1338 27.7774 63.1516 27.6737C63.1679 27.5789 63.2671 27.616 63.3323 27.616C63.8167 27.613 64.3026 27.616 64.787 27.616C64.787 27.6263 64.787 27.6352 64.787 27.6456L64.7885 27.6471ZM65.2537 27.9285C65.1292 27.9345 65.0048 27.9315 64.8818 27.9493C64.7011 27.9759 64.593 28.1345 64.6507 28.3033C64.6774 28.3804 64.6759 28.453 64.6759 28.527C64.6848 29.604 64.6211 30.6809 64.6759 31.7564C64.6878 32.0008 64.75 32.0868 64.9633 32.1816C65.3677 32.3608 65.7899 32.346 66.2017 32.2586C66.4758 32.2008 66.7573 32.1282 66.9884 31.9297C67.4624 31.5224 67.5898 30.9594 67.652 30.3891C67.7098 29.8573 67.5572 29.3507 67.2846 28.884C67.2254 28.7833 67.1321 28.7226 67.0595 28.6396C66.8432 28.3878 66.5676 28.2056 66.2625 28.0989C65.941 27.9863 65.6018 27.9122 65.2522 27.9271L65.2537 27.9285Z" fill="#FFFFFE"/>
<path d="M105.706 13.3385C105.572 12.3741 105.635 11.4379 105.6 10.5046C105.597 10.435 105.575 10.3653 105.566 10.2957C105.547 10.1387 105.469 10.0661 105.303 10.0617C105.082 10.0557 104.883 9.92241 104.929 9.82908C105.008 9.66465 105.172 9.72835 105.307 9.72983C105.71 9.73427 106.112 9.7402 106.514 9.75057C106.578 9.75205 106.683 9.71798 106.692 9.80982C106.7 9.88982 106.646 9.97129 106.546 10.0039C106.42 10.0454 106.276 10.0483 106.2 10.1979C106.14 10.3165 106.159 10.4409 106.157 10.5535C106.135 11.6112 106.091 12.6674 106.101 13.7251C106.103 13.9369 106.085 14.1488 106.101 14.3621C106.11 14.4688 106.095 14.5754 106.049 14.6732C106.003 14.7724 105.95 14.8169 105.849 14.7132C105.626 14.4806 105.39 14.2599 105.162 14.0317C104.811 13.6807 104.466 13.3222 104.11 12.9755C103.586 12.463 103.085 11.9297 102.583 11.3979C102.512 11.3223 102.469 11.2201 102.407 11.1342C102.37 11.0823 102.337 11.0453 102.282 11.1386C102.193 11.2897 102.21 11.4527 102.232 11.6008C102.287 11.9578 102.267 12.3178 102.293 12.6748C102.322 13.1118 102.336 13.5488 102.359 13.9858C102.371 14.1903 102.476 14.3236 102.682 14.3739C102.773 14.3962 102.869 14.4139 102.946 14.4732C102.978 14.4984 103.012 14.525 103.005 14.5739C102.996 14.6243 102.961 14.6406 102.916 14.6465C102.836 14.6569 102.762 14.6939 102.676 14.685C102.26 14.6406 101.842 14.6361 101.426 14.6836C101.384 14.688 101.34 14.691 101.303 14.6791C101.23 14.6569 101.143 14.6243 101.139 14.5428C101.134 14.4762 101.211 14.448 101.275 14.4273C101.407 14.3843 101.516 14.2821 101.667 14.2969C101.727 14.3028 101.728 14.2569 101.73 14.214C101.739 14.0377 101.774 13.8658 101.776 13.6881C101.787 12.4215 101.805 11.1549 101.826 9.88834C101.827 9.79649 101.781 9.65724 101.882 9.61724C101.995 9.5728 102.085 9.68983 102.159 9.76834C102.429 10.0542 102.681 10.3609 102.958 10.6335C103.41 11.0794 103.839 11.5475 104.298 11.9874C104.601 12.2778 104.869 12.6037 105.177 12.8881C105.337 13.0363 105.452 13.2422 105.706 13.3399V13.3385Z" fill="#FFFFFE"/>
<path d="M64.5708 46.1391C64.5441 46.3598 64.6641 46.5598 64.7974 46.7524C65.19 47.3183 65.6581 47.8175 66.1662 48.2797C66.3499 48.4456 66.5306 48.6145 66.7025 48.7922C66.7617 48.8545 66.784 48.8322 66.8328 48.7908C66.8714 48.7582 66.8951 48.7182 66.9099 48.6737C66.9988 48.4189 67.0743 48.1627 67.0595 47.8886C67.0536 47.7849 67.0091 47.699 66.9099 47.6679C66.7973 47.6338 66.7247 47.5257 66.5988 47.5183C66.5351 47.5153 66.5203 47.462 66.5232 47.4012C66.5262 47.3375 66.5543 47.3109 66.6166 47.2946C66.9514 47.2087 67.2802 47.2872 67.6061 47.3449C67.7572 47.3716 67.7276 47.5509 67.7202 47.6649C67.7054 47.8545 67.618 48.0308 67.5646 48.2115C67.4772 48.5123 67.338 48.7715 67.1425 49.007C67.098 49.0619 67.095 49.0959 67.1484 49.1359C67.5943 49.4737 68.0579 49.7729 68.6386 49.8144C68.7201 49.8203 68.809 49.8544 68.8149 49.927C68.8194 49.9773 68.766 50.0633 68.6712 50.0722C68.409 50.0959 68.1439 50.1655 67.8876 50.1418C67.535 50.1092 67.175 50.0529 66.8773 49.8218C66.8595 49.8085 66.8343 49.8025 66.818 49.7877C66.6017 49.5937 66.6151 49.6189 66.3662 49.7522C65.9692 49.964 65.5574 50.1596 65.0922 50.167C64.7974 50.1714 64.5071 50.2188 64.2064 50.1062C63.7931 49.9522 63.4835 49.684 63.279 49.3226C63.0139 48.8545 63.1116 48.3834 63.3753 47.9256C63.5323 47.6531 63.7857 47.4768 63.9693 47.2353C64.0256 47.1612 64.1915 47.2487 64.1738 47.0946C64.1634 47.0042 64.0671 46.9583 64.0182 46.8887C63.7234 46.4635 63.8553 45.7762 64.2449 45.4236C64.7145 44.9999 65.2537 44.9955 65.824 45.0784C65.9722 45.1007 66.1203 45.1244 66.2684 45.151C66.4344 45.1807 66.4773 45.2799 66.4832 45.4206C66.4951 45.7036 66.4077 45.9732 66.3781 46.2517C66.3692 46.3435 66.2877 46.3613 66.224 46.2932C66.1455 46.2087 66.0699 46.1213 66.0625 45.9924C66.0403 45.6028 65.7988 45.3762 65.4181 45.3747C65.2833 45.3747 65.15 45.348 65.0167 45.3999C64.7189 45.5169 64.5663 45.751 64.5678 46.1376L64.5708 46.1391ZM63.9279 48.4604C63.9427 48.5774 63.9323 48.6589 63.9649 48.7478C64.113 49.1463 64.3219 49.4752 64.7367 49.6559C64.9589 49.7522 65.1693 49.7892 65.4048 49.7566C65.6122 49.7285 65.7707 49.5803 65.9662 49.5389C66.0818 49.5137 66.1751 49.4574 66.2033 49.3641C66.2299 49.2767 66.1203 49.2174 66.0536 49.1626C65.7218 48.8856 65.4255 48.573 65.1204 48.2664C64.87 48.0145 64.63 47.7538 64.4152 47.4709C64.3604 47.3983 64.3086 47.3509 64.276 47.4916C64.2597 47.5642 64.2315 47.6457 64.1827 47.699C63.9753 47.9256 63.9501 48.2071 63.9264 48.4604H63.9279Z" fill="#FFFFFE"/>
<path d="M77.4454 45.0947C78.038 45.1584 78.6853 45.1155 79.3327 45.1244C79.6852 45.1288 80.0274 45.2266 80.303 45.4814C80.5741 45.7317 80.6526 46.0428 80.6393 46.4013C80.62 46.8946 80.3696 47.2575 80.023 47.5731C79.8304 47.7479 79.8393 47.8708 80.0304 48.056C80.1548 48.1775 80.2541 48.3256 80.3578 48.4693C80.5859 48.7863 80.8422 49.0826 81.1296 49.3463C81.3622 49.5596 81.6007 49.7848 81.9577 49.7626C81.9755 49.7626 81.9932 49.767 82.0095 49.7729C82.1117 49.8055 82.2584 49.8011 82.2288 49.9655C82.2036 50.1077 82.0732 50.1062 81.9651 50.0988C81.8169 50.0899 81.6807 50.1522 81.5414 50.1655C81.257 50.1936 80.9844 50.1033 80.7444 49.9492C80.3741 49.7122 80.1237 49.3552 79.8645 49.01C79.6704 48.7508 79.4956 48.4767 79.2971 48.2204C79.1831 48.0738 79.0023 48.0501 78.8261 48.0427C78.5076 48.0308 78.469 47.9967 78.5001 48.4115C78.5283 48.776 78.5031 49.1419 78.5564 49.5063C78.5875 49.7151 78.6172 49.7655 78.8305 49.7833C78.9223 49.7907 79.0157 49.7788 79.1075 49.8159C79.1638 49.8381 79.2023 49.8574 79.2038 49.9211C79.2068 49.9862 79.2038 50.0396 79.1327 50.084C79.0097 50.1596 78.8749 50.1581 78.7564 50.1285C78.3357 50.0203 77.9209 50.0159 77.5002 50.1285C77.318 50.1773 77.1225 50.1018 77.1077 49.9936C77.0943 49.8914 77.241 49.7833 77.4336 49.7581C77.4736 49.7522 77.5165 49.7507 77.558 49.7551C77.635 49.7655 77.6617 49.7418 77.6632 49.6603C77.6898 48.6308 77.6943 47.6027 77.6869 46.5731C77.6839 46.2547 77.7091 45.9376 77.6484 45.6206C77.6306 45.5243 77.6024 45.4725 77.4928 45.4784C77.3417 45.4873 77.2099 45.4088 77.0706 45.3643C76.9699 45.3318 76.9728 45.2592 77.0425 45.1792C77.1402 45.0681 77.2662 45.0962 77.4424 45.0947H77.4454ZM79.8808 46.6294C79.9252 46.3465 79.8201 46.0858 79.6601 45.8488C79.4097 45.4769 79.026 45.4443 78.6246 45.4636C78.5105 45.4695 78.4972 45.5584 78.4987 45.6384C78.5001 46.2295 78.5105 46.8191 78.509 47.4101C78.509 47.5005 78.5742 47.5568 78.5757 47.6531C78.5787 47.7701 78.7431 47.6901 78.829 47.7227C78.8498 47.7316 78.8705 47.7434 78.8927 47.7464C79.0912 47.7819 79.2734 47.7434 79.4334 47.619C79.7504 47.3716 79.9208 47.0531 79.8808 46.628V46.6294Z" fill="#FFFFFE"/>
<path d="M94.0665 12.1578C94.0606 11.8689 94.0384 11.5815 94.1599 11.3001C94.4443 10.6379 94.8517 10.075 95.5494 9.83944C96.1005 9.65131 96.6856 9.57872 97.2782 9.70168C97.4382 9.73427 97.6011 9.78908 97.773 9.7713C97.8841 9.75945 97.9611 9.85722 98.0603 9.89574C98.5151 10.075 98.8766 10.392 99.0899 10.8127C99.2662 11.1608 99.3891 11.543 99.3936 11.9623C99.3965 12.3059 99.3477 12.6348 99.2603 12.9533C99.0929 13.5607 98.7196 14.0229 98.1818 14.3636C97.7315 14.648 97.2189 14.7087 96.7182 14.8228C96.6901 14.8287 96.6575 14.8302 96.6293 14.8228C96.2531 14.7221 95.862 14.7072 95.4916 14.5591C95.0546 14.3828 94.7539 14.0732 94.4947 13.7073C94.2843 13.411 94.1154 13.0896 94.071 12.7237C94.0488 12.537 94.0665 12.3459 94.0665 12.1578ZM96.6278 9.94759C96.499 9.97129 96.376 9.95647 96.2516 9.97869C95.7227 10.072 95.3865 10.3831 95.148 10.8542C94.9909 11.1638 94.9835 11.4853 94.9628 11.8097C94.9257 12.4096 94.9969 12.9829 95.3302 13.5088C95.625 13.9754 96.0309 14.291 96.5553 14.4347C97.1137 14.5873 97.7833 14.3088 98.1033 13.8095C98.3403 13.4392 98.407 13.02 98.4336 12.6081C98.4766 11.9608 98.4233 11.3223 98.0189 10.7564C97.6693 10.2661 97.2026 10.0231 96.6278 9.94907V9.94759Z" fill="#FFFFFE"/>
<path d="M102.759 27.6174C103.316 27.6737 103.815 27.5967 104.303 27.7093C104.737 27.8085 105.021 28.0589 105.129 28.5092C105.264 29.0662 105.072 29.5106 104.689 29.8928C104.577 30.0054 104.494 30.1447 104.359 30.2365C104.328 30.2573 104.319 30.281 104.356 30.321C104.827 30.838 105.196 31.4394 105.716 31.9164C105.94 32.1223 106.174 32.269 106.483 32.2704C106.529 32.2704 106.577 32.2838 106.621 32.2971C106.701 32.3223 106.763 32.383 106.762 32.4615C106.762 32.5489 106.67 32.5104 106.62 32.5178C106.224 32.5845 105.824 32.6038 105.429 32.5356C105.199 32.4956 105.079 32.2897 104.925 32.1416C104.603 31.832 104.359 31.4601 104.109 31.0942C104.023 30.9683 103.944 30.8365 103.842 30.7254C103.651 30.515 103.372 30.5476 103.127 30.518C102.987 30.5017 102.972 30.6928 102.98 30.7772C103.011 31.1239 102.99 31.4705 102.998 31.8171C103.007 32.2275 103.119 32.1905 103.438 32.2704C103.503 32.2867 103.572 32.2942 103.641 32.3104C103.721 32.3297 103.735 32.4053 103.744 32.4586C103.759 32.5489 103.67 32.5015 103.63 32.5178C103.365 32.6319 103.092 32.5504 102.824 32.5356C102.564 32.5208 102.309 32.5297 102.053 32.5815C101.919 32.6082 101.784 32.5801 101.653 32.5504C101.611 32.5415 101.583 32.5089 101.584 32.4601C101.584 32.4171 101.584 32.3786 101.635 32.3593C101.679 32.343 101.721 32.309 101.765 32.306C102.124 32.2853 102.167 32.0201 102.184 31.752C102.21 31.3683 102.223 30.9831 102.229 30.5995C102.239 29.9314 102.235 29.2618 102.248 28.5937C102.253 28.4055 102.195 28.2322 102.138 28.0648C102.094 27.93 101.903 27.9374 101.787 27.8619C101.753 27.8411 101.707 27.8397 101.669 27.8263C101.595 27.8011 101.54 27.7493 101.555 27.6693C101.571 27.5863 101.651 27.6204 101.704 27.6189C102.076 27.616 102.45 27.6189 102.756 27.6189L102.759 27.6174ZM102.984 29.2307C102.984 29.484 102.993 29.7388 102.981 29.9921C102.975 30.1284 103.029 30.1743 103.152 30.1743C103.329 30.1743 103.506 30.1832 103.684 30.1743C103.869 30.1654 104.026 30.1121 104.147 29.9402C104.267 29.7714 104.278 29.5832 104.337 29.4025C104.442 29.0855 104.377 28.7744 104.264 28.4959C104.081 28.0441 103.602 27.8426 103.103 27.9389C103.057 27.9478 103.021 27.9611 103.012 28.007C102.996 28.0989 102.961 28.1937 102.975 28.2811C103.026 28.5981 102.981 28.9151 102.984 29.2321V29.2307Z" fill="#FFFFFE"/>
<path d="M77.9803 27.6204C78.164 27.6204 78.3462 27.6189 78.5299 27.6204C78.9195 27.6249 79.3076 27.6352 79.6839 27.7522C80.2246 27.9211 80.3401 28.3789 80.2527 28.8174C80.1801 29.1818 79.9698 29.4647 79.6809 29.6929C79.6543 29.7136 79.5906 29.721 79.6068 29.7758C79.6231 29.8321 79.678 29.8099 79.712 29.8054C80.0335 29.761 80.2172 30.0054 80.389 30.1862C80.6497 30.4602 80.8216 30.7994 80.8082 31.2098C80.7949 31.5712 80.6216 31.8512 80.3831 32.0882C80.2038 32.266 79.992 32.4112 79.7387 32.4882C79.4039 32.5889 79.0647 32.5904 78.7254 32.5682C78.3669 32.5445 78.0099 32.503 77.6514 32.5549C77.5033 32.5756 77.3566 32.5623 77.2085 32.5489C77.1596 32.5445 77.1078 32.5401 77.1004 32.4808C77.0944 32.4334 77.1078 32.386 77.1537 32.3578C77.2544 32.2971 77.3522 32.2216 77.4766 32.226C77.5833 32.229 77.6055 32.186 77.6233 32.0838C77.7255 31.4972 77.687 30.9076 77.6899 30.318C77.6929 29.7684 77.6988 29.2173 77.7018 28.6677C77.7018 28.5552 77.6988 28.4426 77.687 28.3315C77.6514 27.9804 77.6366 27.9671 77.2915 27.8974C77.2855 27.8974 77.2781 27.8974 77.2737 27.8959C77.1789 27.8308 76.9893 27.8411 77.013 27.6856C77.0352 27.5463 77.1922 27.6249 77.287 27.6204C77.5166 27.61 77.7477 27.6174 77.9788 27.6174C77.9788 27.6174 77.9788 27.6189 77.9788 27.6204H77.9803ZM78.5195 30.8824C78.524 31.2424 78.5047 31.6038 78.5625 31.9623C78.5862 32.1119 78.6706 32.1905 78.8069 32.229C78.9817 32.2779 79.1565 32.269 79.3343 32.2453C79.6305 32.2067 79.8394 32.0231 79.9253 31.7357C79.9816 31.549 79.9609 31.3609 79.949 31.1772C79.9224 30.755 79.7268 30.4232 79.3817 30.1654C79.1461 29.9906 78.881 29.9936 78.6173 29.9595C78.5388 29.9491 78.5314 29.9921 78.5269 30.0662C78.5091 30.3387 78.5166 30.6098 78.5195 30.8809V30.8824ZM78.5314 28.9833C78.5314 29.207 78.5314 29.3788 78.5314 29.5492C78.5314 29.6099 78.5403 29.6721 78.6247 29.6706C78.7832 29.6677 78.9417 29.6662 79.1002 29.6603C79.2424 29.6558 79.3328 29.5877 79.4039 29.4573C79.5239 29.2366 79.5861 29.0114 79.5683 28.7596C79.5402 28.3255 79.158 27.8219 78.7254 27.8945C78.5225 27.9285 78.4988 27.9226 78.4943 28.1389C78.4869 28.4396 78.5803 28.7344 78.5314 28.9848V28.9833Z" fill="#FFFFFE"/>
<path d="M70.7466 29.8247C70.7466 29.3403 70.7422 28.9685 70.7481 28.5952C70.7511 28.4041 70.7096 28.2218 70.6844 28.0367C70.6785 27.9967 70.6696 27.9759 70.6252 27.967C70.517 27.9448 70.4104 27.9048 70.3007 27.89C70.237 27.8811 70.1911 27.8604 70.1511 27.813C70.1141 27.7685 70.0533 27.73 70.0874 27.6634C70.1156 27.6086 70.1748 27.6145 70.2296 27.616C70.5555 27.6204 70.88 27.6219 71.2059 27.6263C71.4829 27.6308 71.7584 27.6382 72.0354 27.65C72.0813 27.6515 72.1554 27.6115 72.1687 27.6886C72.1791 27.7508 72.1465 27.81 72.0784 27.8367C72.0147 27.8619 71.9525 27.89 71.8888 27.9152C71.6562 28.0056 71.6029 28.0737 71.6043 28.3152C71.6058 29.1359 71.6192 29.9565 71.6132 30.7757C71.6088 31.232 71.7466 31.629 72.068 31.9445C72.508 32.3771 73.0146 32.4364 73.5331 32.1356C74.0605 31.8305 74.1893 31.3327 74.2101 30.7802C74.219 30.5284 74.1731 30.2736 74.1805 30.0262C74.1923 29.6262 74.2042 29.2262 74.2116 28.8262C74.216 28.607 74.1938 28.3907 74.1701 28.1715C74.1508 27.9922 74.0664 27.9108 73.896 27.8945C73.8042 27.8856 73.7123 27.8782 73.6309 27.8248C73.5701 27.7848 73.5035 27.7419 73.5257 27.6604C73.5464 27.5819 73.6235 27.6174 73.6768 27.616C74.1375 27.6056 74.5997 27.6397 75.0604 27.6071C75.1315 27.6026 75.2026 27.6056 75.2693 27.6352C75.3078 27.653 75.3744 27.6352 75.3744 27.7048C75.3744 27.77 75.3433 27.8174 75.2752 27.8322C75.253 27.8367 75.2308 27.8559 75.2085 27.8559C74.9108 27.8648 74.8115 28.087 74.81 28.3404C74.8056 29.0973 74.7952 29.8543 74.7923 30.6128C74.7893 31.1965 74.5908 31.7031 74.2012 32.1342C73.9982 32.3579 73.7435 32.4867 73.4501 32.5534C73.2116 32.6067 72.9746 32.6867 72.7272 32.6541C72.3524 32.6052 71.9539 32.6571 71.6192 32.4127C71.2488 32.1416 71.0059 31.7934 70.8503 31.3535C70.6577 30.8068 70.8029 30.2558 70.7451 29.8203L70.7466 29.8247Z" fill="#FFFFFE"/>
<path d="M105.796 46.0887C105.78 46.0902 105.775 46.0932 105.771 46.0917C105.626 46.0339 105.492 45.9036 105.461 45.7362C105.418 45.5036 105.224 45.5347 105.085 45.5214C104.827 45.4962 104.566 45.5184 104.306 45.5154C104.236 45.5154 104.23 45.5436 104.209 45.6028C104.149 45.785 104.205 45.9598 104.209 46.1391C104.217 46.4517 104.214 46.7657 104.198 47.0783C104.19 47.2324 104.229 47.2798 104.389 47.2827C104.643 47.2886 104.897 47.2827 105.152 47.2798C105.31 47.2783 105.439 47.2279 105.546 47.1153C105.609 47.0487 105.689 47.0057 105.774 47.0398C105.857 47.0738 105.817 47.1687 105.809 47.2294C105.783 47.4797 105.723 47.7271 105.732 47.9819C105.732 48.0175 105.72 48.0486 105.729 48.0916C105.746 48.1715 105.691 48.2323 105.605 48.2486C105.512 48.2649 105.515 48.2041 105.498 48.1345C105.473 48.0279 105.436 47.9256 105.412 47.8175C105.393 47.7286 105.34 47.6723 105.233 47.6501C104.916 47.582 104.595 47.6827 104.279 47.6131C104.212 47.5983 104.224 47.659 104.224 47.696C104.232 48.1923 104.177 48.69 104.215 49.1863C104.227 49.3329 104.286 49.4766 104.329 49.6189C104.355 49.7063 104.411 49.7477 104.51 49.7477C104.735 49.7463 104.959 49.7596 105.184 49.7611C105.426 49.7625 105.759 49.4663 105.784 49.2204C105.79 49.1626 105.812 49.1226 105.84 49.0781C105.876 49.0219 105.92 48.9878 105.986 49.0085C106.042 49.0263 106.054 49.0796 106.061 49.133C106.098 49.4203 106.015 49.6959 105.969 49.9744C105.96 50.0307 105.889 50.0722 105.812 50.0944C105.497 50.1847 105.183 50.0751 104.866 50.1018C104.406 50.1418 103.949 50.0203 103.485 50.0618C103.282 50.0796 103.091 50.161 102.879 50.1388C102.73 50.1225 102.734 50.0751 102.78 49.9655C102.844 49.8144 102.949 49.7344 103.116 49.7462C103.251 49.7551 103.287 49.6914 103.298 49.5581C103.393 48.4263 103.344 47.2931 103.353 46.1613C103.355 45.9673 103.346 45.7747 103.297 45.5865C103.27 45.4814 103.218 45.4029 103.09 45.4117C103.018 45.4162 102.947 45.4088 102.876 45.4103C102.767 45.4132 102.693 45.3762 102.688 45.2532C102.684 45.1332 102.783 45.1066 102.86 45.0977C103.001 45.0814 103.144 45.0784 103.285 45.0962C103.823 45.1614 104.361 45.2043 104.9 45.1525C105.169 45.1258 105.443 45.154 105.71 45.0947C105.876 45.0577 105.932 45.1347 105.919 45.2962C105.903 45.4947 105.898 45.6962 105.886 45.8947C105.882 45.9732 105.741 45.985 105.796 46.0887Z" fill="#FFFFFE"/>
<path d="M79.7935 14.6495C79.5505 14.6495 79.3091 14.6524 79.0661 14.6495C78.9047 14.6465 78.8661 14.5754 78.9565 14.4347C79.0335 14.3147 79.0543 14.2228 78.995 14.0703C78.8913 13.8021 78.7906 13.5296 78.7061 13.2525C78.6587 13.1 78.5891 13.0318 78.4188 13.0451C78.0129 13.0763 77.607 13.0303 77.1996 13.0777C76.9966 13.1014 76.8944 13.2096 76.8767 13.3592C76.8515 13.5829 76.7285 13.7636 76.6781 13.974C76.6633 14.0377 76.6544 14.0984 76.65 14.1621C76.6396 14.3043 76.6559 14.4021 76.8441 14.4184C76.9418 14.4258 77.1344 14.4347 77.13 14.5547C77.127 14.6569 76.9418 14.6273 76.8367 14.6554C76.6796 14.6969 76.5196 14.6465 76.3596 14.6554C76.0767 14.6702 75.7938 14.6761 75.5108 14.685C75.453 14.6865 75.3953 14.685 75.3405 14.6554C75.3019 14.6347 75.2694 14.6169 75.2649 14.568C75.259 14.5132 75.3005 14.4984 75.3375 14.4821C75.3953 14.4554 75.4545 14.4154 75.5138 14.411C75.9152 14.3858 76.0945 14.1221 76.2085 13.7829C76.3315 13.4199 76.4959 13.0733 76.6441 12.7207C76.77 12.42 76.8692 12.1089 76.9863 11.8052C77.1581 11.3593 77.3329 10.9149 77.5107 10.4705C77.5981 10.2542 77.6914 10.0394 77.7833 9.82463C77.8173 9.74316 77.8499 9.6602 77.9166 9.59798C77.9832 9.53725 78.0055 9.50466 78.0943 9.61576C78.3269 9.90907 78.3417 10.2809 78.5047 10.592C78.7698 11.0942 78.8987 11.6497 79.1343 12.1637C79.2587 12.4348 79.3402 12.7267 79.4587 13.0022C79.6142 13.3666 79.7387 13.7444 79.9416 14.088C80.0764 14.3147 80.2927 14.4199 80.5519 14.4376C80.5697 14.4376 80.5875 14.4376 80.6053 14.4406C80.6912 14.451 80.7875 14.4895 80.7934 14.5665C80.7993 14.6361 80.6912 14.6465 80.6245 14.6584C80.349 14.7058 80.0705 14.6584 79.7935 14.6524V14.6495ZM77.9121 12.6407C78.0306 12.6407 78.1492 12.6407 78.2662 12.6407C78.401 12.6407 78.4662 12.5978 78.401 12.4526C78.2203 12.0526 78.124 11.6245 77.9744 11.2127C77.9432 11.1282 77.9195 11.0216 77.8158 11.026C77.721 11.0305 77.6736 11.1371 77.6573 11.2142C77.5729 11.6112 77.4425 11.9904 77.2722 12.3578C77.1774 12.5622 77.2633 12.657 77.487 12.6392C77.6277 12.6289 77.7699 12.6378 77.9121 12.6378V12.6407Z" fill="#FFFFFE"/>
<path d="M95.822 45.5303C95.8309 45.394 95.7509 45.3703 95.6324 45.3762C95.425 45.3866 95.222 45.4132 95.0161 45.4414C94.9124 45.4562 94.8487 45.5362 94.7391 45.5495C94.6369 45.5614 94.548 45.6769 94.4488 45.7406C94.3421 45.8102 94.3006 45.9332 94.2028 46.0117C94.108 46.0887 94.0962 46.2191 94.0414 46.3213C93.7821 46.7894 93.7599 47.2961 93.8132 47.8042C93.8414 48.0679 93.948 48.3182 94.0473 48.57C94.2843 49.1744 94.7835 49.4766 95.3168 49.724C95.5583 49.8351 95.8546 49.8722 96.136 49.7774C96.2516 49.7374 96.3775 49.7581 96.496 49.7063C96.8249 49.564 97.0663 49.3418 97.2011 49.007C97.2026 49.0011 97.2071 48.9967 97.21 48.9922C97.2723 48.8945 97.3271 48.736 97.4589 48.7967C97.5522 48.8397 97.4989 48.9952 97.4811 49.1033C97.4485 49.293 97.4485 49.4855 97.41 49.6766C97.3774 49.8381 97.2886 49.9329 97.1612 49.9877C96.9241 50.0899 96.6738 50.161 96.4101 50.1625C96.0664 50.1625 95.7198 50.1996 95.382 50.1596C94.5125 50.0573 93.7481 49.7581 93.2592 48.9552C92.9244 48.4056 92.7911 47.819 92.877 47.1924C92.9837 46.4117 93.3718 45.791 94.0621 45.391C94.3969 45.1969 94.7672 45.0799 95.1569 45.0651C95.7909 45.0414 96.4264 45.0281 97.056 45.1555C97.4663 45.2384 97.49 45.2562 97.4767 45.6784C97.4708 45.8902 97.4115 46.0976 97.4322 46.3109C97.4397 46.3895 97.4322 46.4843 97.3226 46.4709C97.2278 46.4591 97.1138 46.4235 97.1108 46.3021C97.1034 45.9999 96.9301 45.8013 96.7197 45.6177C96.5153 45.4384 96.2708 45.4014 96.0146 45.4132C95.9449 45.4162 95.9153 45.5199 95.822 45.5288V45.5303Z" fill="#FFFFFE"/>
<path d="M96.5937 30.0306C96.5937 29.4632 96.613 28.8944 96.5774 28.327C96.5715 28.2278 96.5537 28.13 96.5448 28.0322C96.5404 27.9745 96.5004 27.9745 96.4604 27.9656C96.3197 27.9315 96.1789 27.8974 96.0412 27.8559C95.9671 27.8337 95.8545 27.8174 95.859 27.73C95.8634 27.6249 95.973 27.616 96.0649 27.6189C96.6559 27.6323 97.2485 27.656 97.8396 27.6545C98.2499 27.6545 98.6662 27.7019 99.0691 27.5789C99.1372 27.5582 99.1506 27.5849 99.1535 27.6441C99.1728 27.9167 99.1121 28.1833 99.0839 28.4515C99.0765 28.5226 99.0202 28.5996 98.921 28.5729C98.8365 28.5507 98.795 28.4766 98.7832 28.3981C98.7447 28.1241 98.6202 28.01 98.3432 28.0041C98.1062 27.9996 97.8707 27.9952 97.6336 27.9848C97.5048 27.9789 97.4322 28.0159 97.4337 28.1611C97.4381 28.6455 97.4381 29.1314 97.4396 29.6158C97.4396 29.7166 97.4751 29.7477 97.5862 29.7506C97.847 29.758 98.1062 29.7403 98.3669 29.7403C98.5521 29.7403 98.7017 29.6306 98.8662 29.5714C99.0469 29.5047 99.0765 29.5195 99.0572 29.7077C99.0291 29.9862 98.9965 30.2647 98.9565 30.5417C98.9476 30.6069 98.915 30.7091 98.8721 30.7209C98.8128 30.7387 98.7639 30.6602 98.7254 30.5965C98.6528 30.4765 98.6188 30.3417 98.5788 30.2128C98.5551 30.1343 98.5254 30.1017 98.4499 30.1017C98.1536 30.0988 97.8588 30.1017 97.5625 30.0943C97.45 30.0913 97.4351 30.1669 97.4351 30.2439C97.4351 30.6572 97.4381 31.072 97.4455 31.4853C97.4485 31.669 97.5033 31.8512 97.4662 32.0379C97.4544 32.1001 97.4811 32.1505 97.5403 32.1593C97.8736 32.2053 98.2069 32.2512 98.5462 32.2053C98.8647 32.1623 98.9684 31.9164 99.0676 31.6661C99.1002 31.5861 99.1209 31.4587 99.2024 31.4705C99.2869 31.4824 99.2676 31.6127 99.2795 31.6986C99.312 31.9431 99.232 32.1742 99.2024 32.4112C99.1861 32.5341 99.0484 32.543 98.9476 32.5549C98.5936 32.5978 98.2366 32.546 97.884 32.5741C97.4959 32.6052 97.1137 32.5045 96.727 32.5475C96.5196 32.5712 96.3137 32.626 96.1034 32.5549C96.053 32.5386 95.9864 32.5445 95.9849 32.4838C95.9819 32.4319 96.0056 32.3801 96.0619 32.3401C96.1745 32.2586 96.2945 32.1993 96.4293 32.1771C96.5137 32.1638 96.5241 32.1253 96.5404 32.0527C96.6145 31.7372 96.5878 31.4172 96.5937 31.0987C96.6011 30.7432 96.5952 30.3891 96.5952 30.0336L96.5937 30.0306Z" fill="#FFFFFE"/>
<path d="M66.0389 9.6602C66.5811 9.63502 67.0848 9.78315 67.6018 9.7876C67.7055 9.7876 67.7351 9.86167 67.7292 9.95647C67.7055 10.3016 67.6847 10.6468 67.6595 10.992C67.6551 11.0468 67.6403 11.0986 67.5677 11.1001C67.5084 11.1001 67.4595 11.1031 67.4195 11.0364C67.3766 10.9623 67.3588 10.8794 67.3514 10.8053C67.3144 10.4453 67.0833 10.2468 66.7796 10.1313C66.4759 10.0157 66.1633 9.93425 65.8241 9.95647C64.9708 10.0157 64.4746 10.349 64.1827 11.1845C64.0553 11.5475 64.0998 11.9178 64.0924 12.2882C64.079 12.9666 64.3916 13.4792 64.8701 13.9162C65.239 14.2525 65.6893 14.4154 66.1722 14.4021C66.6774 14.3888 67.1485 14.2332 67.4077 13.731C67.4314 13.6836 67.4625 13.6407 67.4907 13.5947C67.5395 13.5177 67.5721 13.3859 67.6817 13.4244C67.784 13.4599 67.7825 13.5888 67.7617 13.6895C67.7188 13.9043 67.661 14.1162 67.6269 14.3325C67.5884 14.5754 67.4418 14.6776 67.2122 14.6865C66.8937 14.6984 66.5826 14.7991 66.2626 14.7754C65.7486 14.7384 65.2286 14.7443 64.7353 14.5562C64.2094 14.3562 63.7872 14.0303 63.5043 13.5444C63.1887 13.0022 63.051 12.4082 63.1221 11.7875C63.1561 11.4882 63.2791 11.1979 63.4228 10.9253C63.7309 10.3416 64.2079 9.94018 64.839 9.78315C65.2316 9.68538 65.6463 9.61872 66.0389 9.66316V9.6602Z" fill="#FFFFFE"/>
<path d="M85.6256 9.74315C85.8567 9.74315 86.0863 9.74315 86.3174 9.74315C86.3693 9.74315 86.4315 9.73427 86.4508 9.80241C86.4685 9.86907 86.4271 9.91055 86.3782 9.95055C86.2908 10.0231 86.1915 10.072 86.0819 10.0868C85.7264 10.1342 85.5427 10.3935 85.362 10.6572C85.1723 10.9342 85.0331 11.2393 84.8687 11.5312C84.7679 11.7104 84.6361 11.8704 84.5279 12.0467C84.368 12.3059 84.3309 12.583 84.3057 12.8644C84.2702 13.2851 84.2731 13.7088 84.3576 14.128C84.3946 14.3147 84.5324 14.3458 84.6761 14.3606C84.7961 14.3739 84.9012 14.4095 84.9975 14.4762C85.0301 14.4999 85.0894 14.5147 85.0672 14.5798C85.0523 14.6228 85.0168 14.6332 84.9768 14.6495C84.8509 14.6998 84.719 14.6969 84.5946 14.6791C84.0924 14.6095 83.5917 14.6732 83.091 14.6761C83.0555 14.6761 83.014 14.685 82.9873 14.6687C82.9414 14.6421 82.8658 14.6391 82.8673 14.5591C82.8688 14.4954 82.9147 14.4628 82.9636 14.4436C83.0717 14.4021 83.1829 14.3636 83.2954 14.3339C83.3428 14.3221 83.3606 14.3102 83.3695 14.2584C83.4169 13.9814 83.4776 13.7044 83.4554 13.4214C83.4317 13.1281 83.4762 12.8333 83.411 12.5385C83.3562 12.2911 83.2184 12.0956 83.0969 11.8897C82.8614 11.4867 82.6125 11.0912 82.3696 10.6927C82.2377 10.4779 82.0614 10.3046 81.8733 10.1402C81.8155 10.0898 81.7459 10.0557 81.663 10.0587C81.6289 10.0587 81.5904 10.0587 81.5593 10.0468C81.4496 10.0068 81.3074 9.94462 81.3178 9.83352C81.3296 9.71205 81.4837 9.71649 81.5933 9.71649C82.0644 9.72093 82.534 9.72538 83.0051 9.73723C83.0658 9.73871 83.1651 9.7076 83.1843 9.80537C83.2036 9.8987 83.1606 9.97869 83.0732 10.0276C83.0332 10.0498 82.9888 10.0676 82.9503 10.0942C82.8673 10.1491 82.8258 10.2009 82.9503 10.2661C83.0984 10.3431 83.1236 10.5164 83.1917 10.6453C83.3339 10.9164 83.4895 11.1786 83.651 11.4364C83.7487 11.5919 83.845 11.7445 83.9028 11.9208C83.9576 12.0882 84.0317 12.0971 84.1354 11.9474C84.2213 11.8215 84.2865 11.6823 84.3605 11.549C84.5265 11.2497 84.6805 10.9416 84.8627 10.6527C84.9472 10.5209 84.9916 10.3846 85.0509 10.2468C85.1116 10.1046 85.0198 10.0691 84.959 10.0454C84.8494 10.0024 84.8094 9.93721 84.8257 9.83056C84.8464 9.70316 84.9516 9.74908 85.0257 9.7476C85.2271 9.74167 85.4271 9.74612 85.6286 9.74612C85.6286 9.74612 85.6286 9.74315 85.6286 9.74167L85.6256 9.74315Z" fill="#FFFFFE"/>
<path d="M90.8622 12.0852C90.8681 12.6467 90.837 13.2096 90.8859 13.7695C90.8903 13.8169 90.8903 13.8644 90.8992 13.9103C90.96 14.2791 91.0548 14.3665 91.4621 14.4036C91.5569 14.4125 91.6414 14.4347 91.6488 14.5354C91.6577 14.6524 91.5377 14.6569 91.4681 14.6613C91.2622 14.6747 91.0533 14.685 90.8488 14.6628C90.4222 14.6184 89.9985 14.6998 89.5719 14.6673C89.4964 14.6613 89.4401 14.6495 89.4149 14.5887C89.3778 14.5028 89.4682 14.5043 89.5126 14.4776C89.5526 14.4525 89.5897 14.4184 89.6326 14.4095C89.9008 14.3562 89.9748 14.1517 90.0045 13.9251C90.0371 13.6584 90.0682 13.3888 90.0711 13.1207C90.0815 12.2452 90.08 11.3697 90.08 10.4942C90.08 10.0972 90.0637 10.0691 89.68 10.1105C89.4089 10.1402 89.1393 10.1402 88.8697 10.1387C88.6771 10.1372 88.5927 10.2365 88.5498 10.3994C88.5172 10.5253 88.3187 10.6631 88.1927 10.632C88.1187 10.6142 88.052 10.5979 88.1098 10.4705C88.1809 10.312 88.2016 10.1298 88.2342 9.95648C88.2505 9.8676 88.2964 9.79501 88.332 9.7165C88.3587 9.65872 88.4149 9.62761 88.4786 9.65132C88.9719 9.82612 89.483 9.75205 89.9882 9.75501C90.6563 9.75798 91.3244 9.75205 91.9925 9.74909C92.151 9.74909 92.308 9.76242 92.465 9.71946C92.5939 9.68391 92.665 9.72983 92.6591 9.88093C92.6502 10.0809 92.6532 10.2824 92.6561 10.4824C92.6591 10.629 92.5569 10.6498 92.4502 10.6675C92.3258 10.6883 92.3095 10.5905 92.2828 10.5076C92.2799 10.4972 92.2828 10.4838 92.2828 10.472C92.2665 10.195 92.2636 10.1683 91.988 10.1417C91.6666 10.1105 91.3392 10.1194 91.0148 10.1091C90.9037 10.1061 90.8963 10.1802 90.8874 10.2602C90.8518 10.5609 90.8725 10.8631 90.8651 11.1638C90.8577 11.4719 90.8637 11.7786 90.8637 12.0867L90.8622 12.0852Z" fill="#FFFFFE"/>
<path d="M87.7039 27.6174C88.0712 27.6515 88.409 27.6278 88.7453 27.6174C88.8312 27.6145 88.9201 27.6175 88.9408 27.7226C88.9616 27.8248 88.8742 27.8456 88.803 27.8737C88.7705 27.8871 88.7393 27.9048 88.7068 27.9152C88.3349 28.0308 88.3379 28.0308 88.3349 28.4263C88.3275 29.3551 88.3157 30.2839 88.3053 31.2128C88.3023 31.4661 88.3201 31.7179 88.3764 31.9653C88.3971 32.0557 88.4416 32.1105 88.5423 32.1386C88.9038 32.2393 89.2697 32.2393 89.6371 32.2038C89.8652 32.1816 89.9126 31.952 90.043 31.8186C90.1185 31.7416 90.1496 31.6364 90.1852 31.5357C90.2015 31.4927 90.2252 31.4468 90.2844 31.4513C90.3555 31.4557 90.3126 31.515 90.3274 31.5475C90.4029 31.7209 90.3703 31.9001 90.3318 32.0734C90.3081 32.1771 90.2741 32.2764 90.2918 32.383C90.3037 32.4527 90.2741 32.4912 90.2059 32.5149C90.077 32.5608 89.9452 32.583 89.8089 32.5786C89.2534 32.5652 88.6979 32.5415 88.1424 32.5401C87.8372 32.5401 87.5335 32.5978 87.2283 32.5845C87.1128 32.5801 87.0017 32.5667 86.9098 32.4838C86.8402 32.423 86.8595 32.3786 86.9276 32.3401C86.9676 32.3179 87.0091 32.2853 87.0521 32.2808C87.4165 32.2364 87.458 31.9446 87.4624 31.6823C87.4787 30.6365 87.4639 29.5892 87.4713 28.5418C87.4713 28.3744 87.4209 28.2189 87.4135 28.0559C87.4106 27.9908 87.3528 27.9759 87.3039 27.9552C87.1854 27.9034 87.0639 27.8574 86.9484 27.7982C86.8965 27.7715 86.861 27.7137 86.8861 27.6486C86.9098 27.5863 86.9676 27.6174 87.0091 27.6174C87.252 27.6145 87.4935 27.616 87.7053 27.616L87.7039 27.6174Z" fill="#FFFFFE"/>
<path d="M71.1629 9.73574C71.4458 9.715 71.7303 9.75944 72.0132 9.72093C72.0843 9.71056 72.1554 9.715 72.2236 9.74315C72.2784 9.76685 72.3762 9.79055 72.3776 9.82018C72.3836 9.90758 72.2947 9.9535 72.2251 9.96832C71.8132 10.0513 71.7214 10.3105 71.7318 10.7016C71.754 11.6304 71.7288 12.5592 71.7347 13.4881C71.7347 13.6866 71.7925 13.8851 71.8206 14.0851C71.8369 14.2006 71.9303 14.2347 72.0177 14.2628C72.3643 14.3739 72.7243 14.3428 73.0739 14.3058C73.2798 14.2836 73.4087 14.0895 73.4842 13.888C73.5257 13.7784 73.542 13.6021 73.6887 13.6318C73.8309 13.6599 73.7686 13.8288 73.7642 13.9369C73.7568 14.1102 73.7301 14.2836 73.7094 14.4569C73.6975 14.5621 73.6412 14.6213 73.5346 14.6495C73.3005 14.7102 73.065 14.6984 72.8295 14.6909C72.2976 14.6776 71.7658 14.6287 71.234 14.648C70.957 14.6584 70.68 14.6895 70.4015 14.6702C70.3333 14.6658 70.2845 14.6613 70.2667 14.5961C70.2474 14.5206 70.3185 14.4821 70.363 14.4717C70.7363 14.3887 70.8385 14.1265 70.8711 13.7829C70.8992 13.4777 70.9318 13.174 70.9318 12.8674C70.9318 12.1163 70.9318 11.3638 70.9318 10.6127C70.9318 10.5105 70.92 10.4127 70.8844 10.3179C70.8414 10.2009 70.7881 10.1046 70.6429 10.0794C70.5437 10.0616 70.4533 9.9935 70.3541 9.96091C70.2859 9.93869 70.2548 9.90165 70.2593 9.83351C70.2637 9.755 70.3244 9.73722 70.3837 9.73574C70.6444 9.73278 70.9037 9.73574 71.1644 9.73574H71.1629Z" fill="#FFFFFE"/>
<path d="M86.8374 47.102C86.8374 46.8205 86.8433 46.4472 86.8344 46.0754C86.83 45.9065 86.7929 45.7391 86.7722 45.5703C86.7648 45.508 86.713 45.5036 86.6685 45.4917C86.5337 45.4562 86.4019 45.4236 86.2819 45.3436C86.2389 45.3155 86.1708 45.3125 86.1782 45.2488C86.1871 45.1747 86.2493 45.1155 86.3174 45.1081C86.4641 45.0918 86.6152 45.0784 86.7589 45.1007C87.0107 45.1392 87.2625 45.1333 87.5129 45.1229C87.6847 45.1155 87.8551 45.1066 88.0269 45.1066C88.0951 45.1066 88.1766 45.0799 88.1914 45.1895C88.2047 45.2873 88.1751 45.3866 88.0817 45.4014C88.0018 45.4147 87.9499 45.4666 87.8773 45.4873C87.7099 45.5347 87.6225 45.6473 87.6225 45.8354C87.6196 46.7405 87.6062 47.6457 87.6033 48.5508C87.6033 48.9093 87.6329 49.2663 87.6981 49.6203C87.7321 49.807 87.901 49.764 88.0166 49.8114C88.0625 49.8307 88.1217 49.8203 88.1751 49.8159C88.261 49.8085 88.3306 49.8248 88.3839 49.9033C88.4313 49.9744 88.3588 49.9937 88.338 50.0351C88.2921 50.1329 88.1884 50.1388 88.1173 50.124C87.8047 50.0603 87.4892 50.0899 87.1751 50.0781C86.8759 50.0677 86.5781 50.1685 86.2759 50.1018C86.1204 50.0677 86.1071 50.0381 86.2093 49.9137C86.3189 49.7803 86.5011 49.7818 86.633 49.684C86.6907 49.6411 86.7218 49.604 86.7278 49.5315C86.7929 48.7523 86.8715 47.9745 86.8389 47.099L86.8374 47.102Z" fill="#FFFFFE"/>
<path d="M83.2835 30.0943C83.3132 29.5003 83.2761 28.8974 83.2672 28.2944C83.2628 27.9774 83.1872 27.8959 82.8717 27.8323C82.8332 27.8248 82.7828 27.8456 82.7562 27.8041C82.7265 27.7567 82.6451 27.7315 82.6688 27.6649C82.688 27.6086 82.7547 27.6174 82.808 27.6174C83.3872 27.6174 83.9664 27.6174 84.5457 27.6174C84.5945 27.6174 84.6731 27.5819 84.6805 27.6811C84.6864 27.7537 84.6597 27.7923 84.5916 27.8323C84.5086 27.8811 84.4168 27.8915 84.3309 27.93C84.1916 27.9937 84.1116 28.09 84.1131 28.2352C84.1175 29.3877 84.045 30.5417 84.1101 31.6942C84.122 31.8957 84.1249 32.1401 84.3797 32.2408C84.4775 32.2793 84.5797 32.2956 84.6834 32.309C84.7664 32.3208 84.8567 32.3401 84.8597 32.4423C84.8627 32.5519 84.7634 32.5445 84.6908 32.5534C84.4183 32.5904 84.1487 32.5297 83.8776 32.5327C83.6124 32.5356 83.3502 32.5193 83.088 32.5801C82.9858 32.6038 82.8658 32.5771 82.7621 32.546C82.6791 32.5208 82.6332 32.4438 82.7221 32.3653C82.7606 32.3312 82.811 32.2927 82.8584 32.2897C83.1813 32.2734 83.205 32.0142 83.2198 31.8009C83.2569 31.2365 83.3146 30.672 83.285 30.0958L83.2835 30.0943Z" fill="#FFFFFE"/>
<path d="M92.086 27.616C92.6163 27.6604 93.16 27.613 93.7051 27.6189C93.7525 27.6189 93.8296 27.576 93.8444 27.6737C93.8562 27.7508 93.8162 27.7893 93.754 27.8263C93.6592 27.8811 93.5525 27.893 93.4533 27.9256C93.3303 27.9656 93.2726 28.0396 93.2726 28.1715C93.277 29.3773 93.2252 30.5846 93.2785 31.7905C93.2844 31.9105 93.3466 32.0231 93.357 32.1475C93.3629 32.2082 93.4444 32.2201 93.4977 32.2334C93.6148 32.263 93.7347 32.2838 93.8547 32.303C93.9436 32.3179 94.0236 32.3608 94.0192 32.4541C94.0147 32.5504 93.9081 32.5401 93.8458 32.5445C93.5748 32.5667 93.3051 32.5297 93.0355 32.5238C92.7837 32.5178 92.5304 32.5075 92.283 32.5815C92.1615 32.6171 92.0371 32.5712 91.923 32.5386C91.8504 32.5193 91.7719 32.4349 91.8801 32.3401C91.9112 32.3134 91.9334 32.2853 91.9778 32.2705C92.0845 32.2364 92.2489 32.2971 92.2934 32.2068C92.3615 32.0645 92.3748 31.8897 92.3867 31.7268C92.4682 30.6054 92.4104 29.4825 92.4208 28.3596C92.4208 28.25 92.403 28.1374 92.3822 28.0293C92.36 27.9093 92.2415 27.9019 92.1541 27.8634C92.1008 27.8411 92.04 27.8367 91.9823 27.8278C91.883 27.813 91.8608 27.7271 91.8623 27.6604C91.8623 27.5626 91.9541 27.6308 92.0015 27.616C92.0238 27.61 92.0489 27.616 92.0875 27.616H92.086Z" fill="#FFFFFE"/>
<path d="M65.2537 27.9285C65.6033 27.9137 65.9425 27.9878 66.264 28.1004C66.5691 28.207 66.8432 28.3892 67.0609 28.6411C67.1335 28.7255 67.2269 28.7863 67.2861 28.8855C67.5587 29.3521 67.7113 29.8588 67.6535 30.3906C67.5913 30.9609 67.4639 31.5224 66.9898 31.9312C66.7602 32.1297 66.4773 32.2008 66.2032 32.2601C65.7914 32.3475 65.3707 32.3623 64.9648 32.1831C64.7515 32.0882 64.6893 32.0023 64.6774 31.7579C64.6226 30.6809 64.6848 29.604 64.6774 28.5285C64.6774 28.4529 64.6774 28.3818 64.6522 28.3048C64.5944 28.1359 64.7026 27.9759 64.8833 27.9508C65.0063 27.933 65.1307 27.9359 65.2551 27.93L65.2537 27.9285Z" fill="#215196"/>
<path d="M63.9264 48.4604C63.9501 48.2071 63.9738 47.9271 64.1827 47.699C64.2316 47.6457 64.2597 47.5642 64.276 47.4916C64.3086 47.3509 64.3604 47.3983 64.4152 47.4709C64.6315 47.7538 64.87 48.0145 65.1204 48.2664C65.4255 48.5715 65.7218 48.8856 66.0536 49.1626C66.1203 49.2174 66.2299 49.2767 66.2033 49.3641C66.1751 49.4574 66.0818 49.5137 65.9662 49.5389C65.7707 49.5803 65.6122 49.7285 65.4048 49.7566C65.1693 49.7892 64.9589 49.7522 64.7367 49.6559C64.3219 49.4752 64.113 49.1463 63.9649 48.7478C63.9323 48.6589 63.9412 48.576 63.9279 48.4604H63.9264Z" fill="#215196"/>
<path d="M79.8808 46.6309C79.9208 47.0576 79.7504 47.3746 79.4334 47.622C79.2734 47.7464 79.0912 47.7834 78.8927 47.7494C78.8705 47.7449 78.8497 47.7331 78.829 47.7257C78.7416 47.6931 78.5787 47.7731 78.5757 47.656C78.5727 47.5597 78.5075 47.5035 78.509 47.4131C78.512 46.822 78.5016 46.2324 78.4987 45.6414C78.4987 45.5628 78.5105 45.4725 78.6246 45.4666C79.0245 45.4458 79.4097 45.4784 79.6601 45.8517C79.82 46.0887 79.9252 46.3495 79.8808 46.6324V46.6309Z" fill="#215196"/>
<path d="M96.6278 9.94611C97.2026 10.0187 97.6692 10.2631 98.0188 10.7535C98.4217 11.3193 98.4751 11.9578 98.4336 12.6052C98.4069 13.017 98.3403 13.4362 98.1032 13.8066C97.7833 14.3073 97.1137 14.5843 96.5552 14.4317C96.0308 14.288 95.6264 13.9725 95.3301 13.5059C94.9968 12.9814 94.9257 12.4067 94.9627 11.8067C94.9834 11.4808 94.9909 11.1594 95.1479 10.8512C95.3864 10.3802 95.7227 10.0705 96.2515 9.97573C96.3759 9.95351 96.4989 9.96833 96.6278 9.94463V9.94611Z" fill="#215196"/>
<path d="M102.984 29.2307C102.981 28.9137 103.026 28.5966 102.975 28.2796C102.962 28.1922 102.996 28.0959 103.013 28.0056C103.021 27.9596 103.057 27.9463 103.103 27.9374C103.601 27.8411 104.081 28.0426 104.264 28.4944C104.377 28.7729 104.442 29.084 104.337 29.401C104.278 29.5818 104.266 29.7699 104.147 29.9388C104.024 30.1106 103.869 30.1639 103.684 30.1728C103.507 30.1817 103.33 30.1728 103.152 30.1728C103.03 30.1728 102.976 30.1269 102.981 29.9906C102.993 29.7373 102.984 29.4825 102.984 29.2292V29.2307Z" fill="#215196"/>
<path d="M78.5195 30.8824C78.5165 30.6113 78.5091 30.3387 78.5269 30.0676C78.5313 29.9936 78.5387 29.9506 78.6172 29.961C78.8809 29.9951 79.1461 29.9921 79.3816 30.1669C79.7268 30.4247 79.9223 30.755 79.949 31.1787C79.9608 31.3624 79.9816 31.5505 79.9253 31.7372C79.8379 32.0245 79.6305 32.2082 79.3342 32.2467C79.1564 32.2704 78.9816 32.2793 78.8068 32.2305C78.6706 32.1919 78.5861 32.1119 78.5624 31.9638C78.5046 31.6053 78.5254 31.2439 78.5195 30.8839V30.8824Z" fill="#215196"/>
<path d="M78.5312 28.9833C78.5816 28.7344 78.4868 28.4381 78.4942 28.1374C78.5001 27.9211 78.5223 27.9271 78.7253 27.893C79.1578 27.8189 79.54 28.3241 79.5682 28.7581C79.5845 29.0114 79.5223 29.2351 79.4038 29.4558C79.3326 29.5862 79.2423 29.6543 79.1001 29.6588C78.9416 29.6647 78.7831 29.6662 78.6246 29.6692C78.5401 29.6706 78.5327 29.6084 78.5312 29.5477C78.5297 29.3758 78.5312 29.2055 78.5312 28.9818V28.9833Z" fill="#215196"/>
<path d="M77.9106 12.6407C77.7684 12.6407 77.6262 12.6318 77.4855 12.6422C77.2603 12.6585 77.1758 12.5637 77.2707 12.3608C77.4425 11.9934 77.5729 11.6141 77.6558 11.2171C77.6721 11.1401 77.7195 11.032 77.8143 11.029C77.918 11.0246 77.9417 11.1312 77.9728 11.2156C78.121 11.6275 78.2187 12.0556 78.3995 12.4556C78.4646 12.6007 78.3995 12.6452 78.2647 12.6437C78.1461 12.6437 78.0276 12.6437 77.9106 12.6437V12.6407Z" fill="#215196"/>
</svg>
