<svg width="170" height="60" viewBox="0 0 170 60" fill="none" xmlns="http://www.w3.org/2000/svg">
<path d="M60.9362 33.9012L62.6159 37.6678H68.0795L57.9423 15.0739H55.1367L45 37.6649H50.5589L52.2253 33.9012H60.9362ZM56.5386 22.7217L59.8324 29.7982H53.268L56.5386 22.7217Z" fill="black"/>
<path d="M103.457 19.7884H109.051L115.316 28.7081L109.051 37.6655H103.457L109.746 28.7081L103.457 19.7884Z" fill="black"/>
<path d="M118.293 32.1808L115.396 36.3228L116.334 37.6649H122.143L118.293 32.1808Z" fill="black"/>
<path d="M119.413 15.5089L115.504 21.0744L118.292 25.0429L125 15.5089H119.413Z" fill="#8D6AC8"/>
<path d="M102.014 37.6643V26.7598C102.014 22.0075 99.002 19.6774 94.1464 19.6774C92.4975 19.6734 90.8591 19.9443 89.2967 20.4795V24.5171C90.5925 23.8449 92.0263 23.4926 93.4815 23.4889C96.1744 23.4889 97.0352 24.9261 97.0352 26.3768V26.5438H94.172C89.6745 26.5438 86.7439 28.9211 86.7439 32.3224C86.7439 35.693 89.0206 37.9883 92.6597 37.9883C95.503 37.9883 97.034 36.9454 97.4659 36.7808C97.4914 36.9779 97.5629 37.6631 97.5629 37.6631L102.014 37.6643ZM97.0352 33.5801C96.7591 33.6934 95.4775 34.3545 94.4231 34.3545C92.723 34.3545 91.7093 33.4763 91.7093 32.009C91.7093 30.8463 92.6056 29.7976 94.6736 29.7976H97.0352V33.5801Z" fill="black"/>
<path d="M79.7274 20.4353C76.8346 19.6131 74.3382 20.81 74.3382 20.81L74.2388 19.8067H69.7872V44.9261H74.5614V37.6667H76.8863C78.8672 37.6667 85.3287 36.9761 85.3287 28.9182C85.3287 24.7496 83.2223 21.6918 79.7285 20.437M80.562 29.0716C80.5004 32.3696 79.1322 33.7076 76.1714 33.7076H74.5597V24.6977C74.5597 24.6977 74.798 24.4817 75.2972 24.2769C75.5968 24.1558 75.9127 24.0814 76.2342 24.0561C79.4827 23.7817 80.6277 25.5033 80.5609 29.0699" fill="black"/>
</svg>
