<svg width="170" height="60" viewBox="0 0 170 60" fill="none" xmlns="http://www.w3.org/2000/svg">
<path d="M26.9421 30.0257C26.9416 30.1982 26.8899 30.3668 26.7935 30.51C26.6971 30.6532 26.5603 30.7648 26.4004 30.8306C26.2405 30.8964 26.0647 30.9135 25.8951 30.8797C25.7255 30.8459 25.5697 30.7628 25.4474 30.6408C25.3251 30.5188 25.2417 30.3634 25.2079 30.1942C25.174 30.0251 25.1911 29.8497 25.2571 29.6902C25.3231 29.5307 25.4349 29.3943 25.5785 29.2981C25.7221 29.202 25.8911 29.1504 26.064 29.1499C26.2969 29.1499 26.5202 29.2422 26.6849 29.4064C26.8496 29.5707 26.9421 29.7934 26.9421 30.0257Z" fill="#D46C5F"/>
<path d="M40.5737 30.0257C40.5732 30.1982 40.5215 30.3668 40.4251 30.51C40.3287 30.6532 40.192 30.7648 40.0321 30.8306C39.8722 30.8964 39.6963 30.9135 39.5267 30.8797C39.3571 30.8459 39.2013 30.7628 39.079 30.6408C38.9567 30.5188 38.8734 30.3634 38.8395 30.1942C38.8056 30.0251 38.8228 29.8497 38.8887 29.6902C38.9547 29.5307 39.0665 29.3943 39.2102 29.2981C39.3538 29.202 39.5227 29.1504 39.6957 29.1499C39.9285 29.1499 40.1519 29.2422 40.3165 29.4064C40.4812 29.5707 40.5737 29.7934 40.5737 30.0257Z" fill="#D46C5F"/>
<path d="M54.2053 30.0257C54.2049 30.1982 54.1532 30.3668 54.0568 30.51C53.9604 30.6532 53.8236 30.7648 53.6637 30.8306C53.5038 30.8964 53.328 30.9135 53.1583 30.8797C52.9887 30.8459 52.8329 30.7628 52.7106 30.6408C52.5883 30.5188 52.505 30.3634 52.4711 30.1942C52.4373 30.0251 52.4544 29.8497 52.5204 29.6902C52.5863 29.5307 52.6982 29.3943 52.8418 29.2981C52.9854 29.202 53.1543 29.1504 53.3273 29.1499C53.5602 29.1499 53.7835 29.2422 53.9482 29.4064C54.1128 29.5707 54.2053 29.7934 54.2053 30.0257Z" fill="#D46C5F"/>
<path d="M47.1001 30.0257C47.1006 30.1413 47.0667 30.2545 47.0027 30.3509C46.9387 30.4474 46.8474 30.5227 46.7405 30.5674C46.6336 30.6121 46.5158 30.6242 46.402 30.6021C46.2882 30.58 46.1835 30.5247 46.1012 30.4433C46.0189 30.3619 45.9626 30.2579 45.9395 30.1446C45.9164 30.0313 45.9275 29.9137 45.9714 29.8067C46.0154 29.6996 46.0901 29.608 46.1862 29.5434C46.2824 29.4787 46.3955 29.4439 46.5115 29.4435C46.6667 29.4435 46.8157 29.5046 46.926 29.6137C47.0362 29.7227 47.0988 29.8708 47.1001 30.0257Z" fill="#D46C5F"/>
<path d="M33.466 30.0257C33.466 30.1801 33.4045 30.3282 33.2951 30.4374C33.1856 30.5466 33.0371 30.6079 32.8823 30.6079C32.7275 30.6079 32.579 30.5466 32.4696 30.4374C32.3601 30.3282 32.2986 30.1801 32.2986 30.0257C32.2986 29.8713 32.3601 29.7232 32.4696 29.614C32.579 29.5048 32.7275 29.4435 32.8823 29.4435C33.0371 29.4435 33.1856 29.5048 33.2951 29.614C33.4045 29.7232 33.466 29.8713 33.466 30.0257Z" fill="#D46C5F"/>
<path d="M30.3144 20.612C30.2088 20.7222 30.065 20.7881 29.9123 20.7963C29.7597 20.8044 29.6097 20.7543 29.4928 20.656L25.3233 17.0622C25.2281 16.9819 25.1504 16.8829 25.0952 16.7714C25.0399 16.6599 25.0082 16.5382 25.0021 16.4139C24.9937 16.2902 25.0111 16.1661 25.0533 16.0494C25.0956 15.9328 25.1616 15.8261 25.2473 15.7363C25.3335 15.6462 25.4373 15.5747 25.5523 15.5262C25.6673 15.4777 25.791 15.4533 25.9159 15.4545C26.0407 15.4556 26.164 15.4823 26.278 15.5329C26.3921 15.5835 26.4946 15.6569 26.5791 15.7485L30.3242 19.8022C30.4277 19.9123 30.4844 20.0581 30.4826 20.2091C30.4808 20.36 30.4205 20.5044 30.3144 20.612Z" fill="#D46C5F"/>
<path d="M54.3991 16.365V16.4139C54.3942 16.5375 54.364 16.6587 54.3104 16.7702C54.2569 16.8816 54.1811 16.981 54.0876 17.0622L49.8936 20.6536C49.7783 20.7522 49.6295 20.8032 49.4777 20.7961C49.3259 20.7889 49.1826 20.7242 49.077 20.6152C48.9714 20.5061 48.9116 20.361 48.9098 20.2094C48.908 20.0579 48.9642 19.9113 49.0671 19.7998L52.8098 15.7485C52.8957 15.6557 53 15.5816 53.1161 15.5311C53.2322 15.4806 53.3576 15.4546 53.4843 15.455C53.6073 15.4553 53.729 15.4802 53.8423 15.5281C53.9556 15.5759 54.0582 15.6459 54.144 15.7338C54.3081 15.9031 54.3996 16.1295 54.3991 16.365Z" fill="#D46C5F"/>
<path d="M40.4952 15.9075L40.2352 19.6603C40.226 19.7971 40.165 19.9253 40.0646 20.0189C39.9642 20.1125 39.8319 20.1646 39.6944 20.1646C39.557 20.1646 39.4247 20.1125 39.3243 20.0189C39.2239 19.9253 39.1629 19.7971 39.1536 19.6603L38.9084 15.9075C38.902 15.7983 38.9179 15.6889 38.9549 15.5859C38.992 15.4829 39.0496 15.3884 39.1242 15.3082C39.2001 15.2297 39.2912 15.1675 39.392 15.1255C39.4928 15.0834 39.6011 15.0623 39.7104 15.0635C39.8189 15.0624 39.9265 15.0836 40.0265 15.1256C40.1265 15.1677 40.2167 15.2298 40.2917 15.3082C40.3641 15.3894 40.4194 15.4843 40.4544 15.5873C40.4893 15.6902 40.5032 15.7991 40.4952 15.9075Z" fill="#D46C5F"/>
<path d="M30.3242 40.2737L26.5791 44.32C26.4954 44.4118 26.3936 44.4852 26.28 44.5357C26.1665 44.5862 26.0437 44.6128 25.9193 44.6136H25.9022C25.7799 44.6159 25.6585 44.5928 25.5457 44.5456C25.433 44.4984 25.3313 44.4282 25.2473 44.3396C25.1623 44.2488 25.0967 44.1416 25.0545 44.0247C25.0123 43.9078 24.9945 43.7835 25.002 43.6595C25.007 43.5355 25.0377 43.4139 25.0921 43.3023C25.1466 43.1907 25.2236 43.0916 25.3184 43.0112L29.5075 39.4199C29.6134 39.3241 29.7521 39.2725 29.895 39.2755C30.0559 39.2771 30.2099 39.3411 30.3242 39.4541C30.4291 39.5649 30.4875 39.7115 30.4875 39.8639C30.4875 40.0163 30.4291 40.1629 30.3242 40.2737Z" fill="#D46C5F"/>
<path d="M54.3991 43.6595C54.407 43.8466 54.3572 44.0315 54.2564 44.1895C54.1556 44.3474 54.0087 44.4707 53.8354 44.5427C53.6622 44.6147 53.4709 44.632 53.2875 44.5922C53.1041 44.5523 52.9374 44.4574 52.8098 44.32L49.0671 40.2737C48.9622 40.1629 48.9038 40.0163 48.9038 39.8639C48.9038 39.7115 48.9622 39.5649 49.0671 39.4541C49.1233 39.3976 49.1902 39.3528 49.2638 39.3221C49.3375 39.2915 49.4165 39.2756 49.4963 39.2755C49.6389 39.2746 49.7768 39.326 49.8838 39.4199L54.0876 43.0112C54.1823 43.0913 54.259 43.1905 54.3127 43.3022C54.3664 43.4139 54.3958 43.5357 54.3991 43.6595Z" fill="#D46C5F"/>
<path d="M40.4952 44.1145C40.5037 44.2236 40.4894 44.3333 40.4533 44.4367C40.4172 44.54 40.36 44.6348 40.2853 44.715C40.2107 44.7952 40.1202 44.8591 40.0195 44.9027C39.9189 44.9463 39.8103 44.9686 39.7006 44.9683C39.591 44.9693 39.4823 44.9481 39.3812 44.9061C39.28 44.864 39.1884 44.802 39.112 44.7237C39.0377 44.6427 38.9804 44.5477 38.9434 44.4444C38.9063 44.3411 38.8903 44.2314 38.8961 44.1219L39.1561 40.3715C39.1689 40.2376 39.2313 40.1133 39.3311 40.0229C39.4308 39.9324 39.5608 39.8822 39.6957 39.8822C39.8305 39.8822 39.9605 39.9324 40.0603 40.0229C40.1601 40.1133 40.2224 40.2376 40.2352 40.3715L40.4952 44.1145Z" fill="#D46C5F"/>
<path d="M65.4212 15.3204C65.4208 15.2801 65.4285 15.2402 65.4438 15.203C65.4591 15.1657 65.4817 15.1319 65.5102 15.1034C65.5388 15.075 65.5727 15.0525 65.61 15.0372C65.6474 15.022 65.6874 15.0143 65.7277 15.0146H72.2811C72.3213 15.0146 72.361 15.0225 72.3981 15.0379C72.4351 15.0533 72.4688 15.0759 72.4971 15.1043C72.5253 15.1327 72.5477 15.1665 72.5628 15.2036C72.578 15.2406 72.5856 15.2803 72.5853 15.3204V16.6414C72.5856 16.6815 72.578 16.7212 72.5628 16.7583C72.5477 16.7954 72.5253 16.8291 72.4971 16.8575C72.4688 16.886 72.4351 16.9085 72.3981 16.9239C72.361 16.9393 72.3213 16.9472 72.2811 16.9472H67.5132V19.9612H71.5012C71.5817 19.9637 71.6583 19.9967 71.7153 20.0535C71.7722 20.1103 71.8053 20.1867 71.8078 20.267V21.5832C71.8053 21.6635 71.7722 21.7399 71.7153 21.7967C71.6583 21.8535 71.5817 21.8865 71.5012 21.889H67.5132V25.9524C67.5103 26.0322 67.4773 26.1079 67.421 26.1645C67.3647 26.2212 67.289 26.2546 67.2091 26.2582H65.7376C65.6562 26.2582 65.5783 26.226 65.5208 26.1687C65.4633 26.1113 65.431 26.0335 65.431 25.9524L65.4212 15.3204Z" fill="black"/>
<path d="M74.6087 15.3204C74.6111 15.2401 74.6442 15.1637 74.7012 15.1069C74.7581 15.0501 74.8347 15.0171 74.9152 15.0146H76.4064C76.487 15.0171 76.5635 15.0501 76.6205 15.1069C76.6775 15.1637 76.7105 15.2401 76.713 15.3204V25.9525C76.71 26.0326 76.6767 26.1086 76.6198 26.1653C76.563 26.222 76.4868 26.2552 76.4064 26.2583H74.9103C74.83 26.2552 74.7538 26.222 74.6969 26.1653C74.6401 26.1086 74.6068 26.0326 74.6038 25.9525L74.6087 15.3204Z" fill="black"/>
<path d="M79.043 15.3204C79.043 15.2393 79.0753 15.1615 79.1328 15.1042C79.1903 15.0468 79.2683 15.0146 79.3496 15.0146H83.9556C84.8797 15.0087 85.7684 15.369 86.4265 16.0162C87.0845 16.6634 87.4581 17.5447 87.4653 18.4665C87.4653 19.9343 86.4842 21.1575 85.0813 21.7128L87.2887 25.791C87.3183 25.8383 87.3343 25.8928 87.3351 25.9486C87.3358 26.0044 87.3213 26.0594 87.293 26.1075C87.2647 26.1556 87.2238 26.1951 87.1746 26.2217C87.1254 26.2482 87.0699 26.2609 87.014 26.2582H85.3241C85.2716 26.2609 85.2195 26.2485 85.1738 26.2225C85.1282 26.1965 85.0909 26.1579 85.0666 26.1115L82.923 21.8572H81.1375V25.9524C81.1344 26.0342 81.0997 26.1117 81.0408 26.1686C80.9819 26.2256 80.9032 26.2577 80.8211 26.2582H79.3496C79.2684 26.2576 79.1908 26.2252 79.1335 26.168C79.0761 26.1108 79.0436 26.0334 79.043 25.9524V15.3204ZM83.7765 20.1374C84.2036 20.1253 84.609 19.9475 84.9067 19.6419C85.2044 19.3362 85.3709 18.9268 85.3707 18.5007C85.3605 18.0851 85.1883 17.6899 84.8906 17.3989C84.593 17.1079 84.1933 16.9441 83.7765 16.9424H81.1522V20.1374H83.7765Z" fill="black"/>
<path d="M89.2851 15.3204C89.2848 15.2804 89.2924 15.2407 89.3075 15.2036C89.3227 15.1665 89.345 15.1327 89.3733 15.1043C89.4016 15.0759 89.4352 15.0533 89.4723 15.0379C89.5093 15.0225 89.5491 15.0146 89.5892 15.0146H96.1451C96.1852 15.0146 96.225 15.0225 96.262 15.0379C96.2991 15.0533 96.3327 15.0759 96.361 15.1043C96.3893 15.1327 96.4116 15.1665 96.4268 15.2036C96.4419 15.2407 96.4495 15.2804 96.4492 15.3204V16.6415C96.4495 16.6815 96.4419 16.7212 96.4268 16.7583C96.4116 16.7954 96.3893 16.8291 96.361 16.8575C96.3327 16.886 96.2991 16.9085 96.262 16.9239C96.225 16.9393 96.1852 16.9473 96.1451 16.9473H91.3674V19.5771H95.3455C95.4257 19.5807 95.5016 19.6141 95.5583 19.6707C95.615 19.7273 95.6485 19.803 95.6521 19.8829V21.2162C95.6515 21.2971 95.6189 21.3745 95.5616 21.4318C95.5042 21.489 95.4266 21.5214 95.3455 21.522H91.3674V24.3305H96.1353C96.1754 24.3305 96.2152 24.3384 96.2522 24.3538C96.2893 24.3692 96.3229 24.3918 96.3512 24.4202C96.3795 24.4486 96.4018 24.4824 96.4169 24.5195C96.4321 24.5565 96.4397 24.5963 96.4394 24.6363V25.9525C96.4394 26.0331 96.4074 26.1106 96.3505 26.1678C96.2935 26.2251 96.2161 26.2576 96.1353 26.2583H89.5892C89.5083 26.2576 89.431 26.2251 89.374 26.1678C89.3171 26.1106 89.2851 26.0331 89.2851 25.9525V15.3204Z" fill="black"/>
<path d="M98.0925 15.4011C98.074 15.3562 98.0675 15.3072 98.0737 15.259C98.0798 15.2109 98.0983 15.1651 98.1275 15.1262C98.1566 15.0872 98.1954 15.0565 98.2399 15.037C98.2845 15.0174 98.3334 15.0097 98.3819 15.0146H99.8534C99.9186 15.0191 99.981 15.043 100.033 15.0831C100.084 15.1232 100.123 15.1777 100.143 15.2397L101.818 21.6468H101.884L104.442 15.0415C104.461 14.985 104.498 14.9366 104.548 14.9042C104.598 14.8717 104.658 14.8572 104.717 14.8629H105.006C105.066 14.8567 105.125 14.871 105.176 14.9036C105.226 14.9361 105.263 14.9848 105.281 15.0415L107.856 21.6468H107.92L109.563 15.2397C109.584 15.1779 109.622 15.1235 109.674 15.0835C109.725 15.0434 109.788 15.0195 109.853 15.0146H111.324C111.373 15.009 111.422 15.0162 111.467 15.0355C111.512 15.0548 111.551 15.0856 111.581 15.1247C111.61 15.1639 111.628 15.21 111.634 15.2585C111.64 15.307 111.633 15.3562 111.614 15.4011L108.592 26.1824C108.577 26.2513 108.539 26.313 108.484 26.3574C108.429 26.4019 108.361 26.4264 108.29 26.427H108.045C107.987 26.4307 107.929 26.4156 107.88 26.3839C107.831 26.3521 107.793 26.3055 107.773 26.2509L104.889 18.9655H104.808L101.958 26.2411C101.937 26.2959 101.899 26.3426 101.85 26.3743C101.8 26.406 101.742 26.4211 101.683 26.4173H101.423C101.357 26.4155 101.293 26.3927 101.241 26.3522C101.189 26.3117 101.151 26.2556 101.134 26.1922L98.0925 15.4011Z" fill="black"/>
<path d="M118.027 14.8531C119.174 14.8497 120.296 15.1857 121.252 15.8184C122.207 16.4512 122.953 17.3524 123.395 18.408C123.837 19.4636 123.955 20.6262 123.734 21.7488C123.514 22.8713 122.964 23.9034 122.156 24.7145C121.347 25.5256 120.315 26.0793 119.191 26.3055C118.067 26.5317 116.901 26.4203 115.84 25.9853C114.779 25.5503 113.872 24.8114 113.232 23.8619C112.592 22.9124 112.249 21.795 112.246 20.6511C112.243 19.8914 112.39 19.1384 112.679 18.4355C112.968 17.7325 113.393 17.0934 113.93 16.5547C114.467 16.016 115.105 15.5884 115.808 15.2964C116.512 15.0044 117.266 14.8538 118.027 14.8531ZM118.027 24.3305C118.762 24.3353 119.481 24.1222 120.094 23.7181C120.707 23.3141 121.185 22.7374 121.469 22.0614C121.752 21.3854 121.827 20.6407 121.685 19.9218C121.543 19.203 121.19 18.5425 120.67 18.0244C120.151 17.5063 119.489 17.154 118.768 17.0122C118.048 16.8705 117.301 16.9457 116.623 17.2283C115.946 17.5109 115.367 17.9882 114.962 18.5994C114.557 19.2106 114.344 19.9282 114.348 20.6609C114.357 21.6316 114.747 22.5601 115.435 23.2465C116.123 23.9329 117.054 24.3222 118.027 24.3305Z" fill="black"/>
<path d="M125.755 15.3204C125.755 15.2393 125.788 15.1615 125.845 15.1042C125.903 15.0468 125.981 15.0146 126.062 15.0146H130.668C131.126 15.0114 131.58 15.0981 132.004 15.2698C132.428 15.4416 132.814 15.6949 133.14 16.0155C133.466 16.336 133.725 16.7174 133.903 17.138C134.081 17.5585 134.175 18.0099 134.178 18.4665C134.178 19.9343 133.197 21.1575 131.794 21.7128L134.001 25.791C134.031 25.8383 134.047 25.8928 134.048 25.9486C134.048 26.0044 134.034 26.0593 134.006 26.1075C133.977 26.1556 133.936 26.1951 133.887 26.2217C133.838 26.2482 133.782 26.2609 133.726 26.2582H132.037C131.984 26.2609 131.932 26.2485 131.886 26.2225C131.841 26.1965 131.803 26.1579 131.779 26.1115L129.628 21.8572H127.84V25.9524C127.837 26.0326 127.804 26.1086 127.747 26.1653C127.69 26.222 127.614 26.2552 127.534 26.2582H126.062C125.981 26.2576 125.903 26.2252 125.846 26.168C125.789 26.1108 125.756 26.0333 125.755 25.9524V15.3204ZM130.491 20.1374C130.918 20.1246 131.322 19.9465 131.619 19.6409C131.916 19.3352 132.082 18.9262 132.081 18.5007C132.071 18.0853 131.9 17.6901 131.602 17.399C131.305 17.108 130.906 16.9442 130.489 16.9424H127.865V20.1374H130.491Z" fill="black"/>
<path d="M136.196 15.4011C136.196 15.3502 136.205 15.2996 136.224 15.2524C136.244 15.2052 136.272 15.1624 136.308 15.1263C136.344 15.0903 136.387 15.0619 136.435 15.0427C136.482 15.0235 136.533 15.0139 136.584 15.0146H138.001C138.104 15.0159 138.201 15.0571 138.273 15.1294C138.345 15.2016 138.386 15.2992 138.386 15.4011V19.7361L142.446 15.1736C142.48 15.1247 142.525 15.0846 142.578 15.0565C142.631 15.0285 142.69 15.0133 142.75 15.0121H144.361C144.428 15.0119 144.494 15.0315 144.55 15.0684C144.606 15.1053 144.65 15.1579 144.676 15.2195C144.702 15.2812 144.71 15.3492 144.697 15.415C144.685 15.4808 144.653 15.5415 144.606 15.5895L140.42 20.311L144.93 25.6931C144.969 25.7459 144.993 25.8087 144.999 25.8743C145.004 25.94 144.991 26.0058 144.961 26.0644C144.931 26.123 144.885 26.172 144.828 26.2058C144.772 26.2396 144.707 26.257 144.641 26.2558H142.872C142.819 26.2605 142.765 26.2527 142.714 26.2332C142.664 26.2137 142.619 26.1829 142.583 26.1433L138.386 20.974V25.8668C138.385 25.9685 138.344 26.0657 138.272 26.1379C138.201 26.21 138.103 26.2515 138.001 26.2534H136.584C136.533 26.254 136.482 26.2445 136.435 26.2253C136.387 26.2061 136.344 26.1776 136.308 26.1416C136.272 26.1056 136.244 26.0627 136.224 26.0155C136.205 25.9683 136.196 25.9178 136.196 25.8668V15.4011Z" fill="black"/>
<path d="M65.0631 34.1479C65.0394 34.1027 65.0282 34.0521 65.0306 34.0011C65.0331 33.9502 65.0492 33.9009 65.0772 33.8582C65.1052 33.8156 65.1441 33.7812 65.1899 33.7585C65.2358 33.7359 65.2868 33.7259 65.3378 33.7296H66.981C67.0386 33.7294 67.0951 33.7459 67.1434 33.7772C67.1918 33.8085 67.2299 33.8531 67.2533 33.9057L70.346 40.8119H70.4588L73.5491 33.9057C73.5729 33.8529 73.6115 33.8082 73.6603 33.7769C73.709 33.7457 73.7659 33.7292 73.8238 33.7296H75.4671C75.5181 33.7256 75.5693 33.7354 75.6152 33.758C75.6611 33.7806 75.7001 33.8151 75.7279 33.858C75.7558 33.9008 75.7716 33.9503 75.7736 34.0014C75.7756 34.0524 75.7637 34.103 75.7393 34.1479L70.7482 44.9561C70.7256 45.0096 70.6872 45.0551 70.6382 45.0865C70.5892 45.1179 70.5318 45.1339 70.4735 45.1322H70.3141C70.2559 45.1339 70.1985 45.1179 70.1495 45.0865C70.1005 45.0551 70.0621 45.0096 70.0394 44.9561L65.0631 34.1479Z" fill="black"/>
<path d="M77.2894 34.0354C77.2894 33.9542 77.3217 33.8765 77.3792 33.8191C77.4367 33.7618 77.5146 33.7296 77.5959 33.7296H84.1493C84.2306 33.7296 84.3086 33.7618 84.3661 33.8191C84.4236 33.8765 84.4559 33.9542 84.4559 34.0354V35.3515C84.4559 35.4326 84.4236 35.5104 84.3661 35.5678C84.3086 35.6251 84.2306 35.6573 84.1493 35.6573H79.3839V38.2921H83.3596C83.4397 38.2945 83.5159 38.3272 83.5728 38.3835C83.6297 38.4398 83.6631 38.5155 83.6662 38.5954V39.9287C83.6665 39.969 83.6588 40.0089 83.6435 40.0461C83.6282 40.0834 83.6056 40.1172 83.5771 40.1457C83.5486 40.1742 83.5146 40.1967 83.4773 40.2119C83.44 40.2272 83.3999 40.2349 83.3596 40.2345H79.3839V43.0454H84.1493C84.2306 43.0454 84.3086 43.0777 84.3661 43.135C84.4236 43.1924 84.4559 43.2701 84.4559 43.3512V44.6674C84.4559 44.7485 84.4236 44.8263 84.3661 44.8836C84.3086 44.941 84.2306 44.9732 84.1493 44.9732H77.5959C77.5146 44.9732 77.4367 44.941 77.3792 44.8836C77.3217 44.8263 77.2894 44.7485 77.2894 44.6674V34.0354Z" fill="black"/>
<path d="M86.5602 33.8592C86.5634 33.7807 86.5973 33.7065 86.6546 33.6526C86.7119 33.5986 86.788 33.5692 86.8668 33.5705H87.2691L93.9671 40.6651H93.9843V34.0354C93.984 33.9951 93.9917 33.9552 94.007 33.9179C94.0223 33.8807 94.0448 33.8469 94.0734 33.8184C94.1019 33.7899 94.1358 33.7674 94.1732 33.7522C94.2105 33.7369 94.2505 33.7292 94.2909 33.7296H95.7625C95.8426 33.7326 95.9185 33.7659 95.975 33.8227C96.0314 33.8794 96.0642 33.9554 96.0666 34.0354V44.8436C96.0634 44.9216 96.0299 44.9954 95.9731 45.0493C95.9164 45.1032 95.8408 45.1329 95.7625 45.1322H95.3749L88.645 37.7612H88.6278V44.6674C88.6281 44.7077 88.6204 44.7476 88.6051 44.7848C88.5898 44.8221 88.5673 44.8559 88.5387 44.8844C88.5102 44.9128 88.4763 44.9353 88.4389 44.9506C88.4016 44.9658 88.3616 44.9735 88.3212 44.9732H86.8497C86.7691 44.9708 86.6926 44.9377 86.6356 44.8809C86.5786 44.8241 86.5455 44.7477 86.5431 44.6674L86.5602 33.8592Z" fill="black"/>
<path d="M100.763 35.6573H98.2985C98.2583 35.6573 98.2186 35.6494 98.1815 35.634C98.1444 35.6186 98.1108 35.596 98.0825 35.5676C98.0543 35.5392 98.0319 35.5054 98.0168 35.4684C98.0016 35.4313 97.994 35.3916 97.9943 35.3515V34.0354C97.994 33.9953 98.0016 33.9556 98.0168 33.9185C98.0319 33.8814 98.0543 33.8477 98.0825 33.8193C98.1108 33.7908 98.1444 33.7683 98.1815 33.7529C98.2186 33.7375 98.2583 33.7296 98.2985 33.7296H105.347C105.388 33.7292 105.428 33.7369 105.465 33.7522C105.502 33.7674 105.536 33.7899 105.565 33.8184C105.593 33.8469 105.616 33.8807 105.631 33.9179C105.646 33.9552 105.654 33.9951 105.654 34.0354V35.3515C105.654 35.3918 105.646 35.4317 105.631 35.4689C105.616 35.5062 105.593 35.54 105.565 35.5685C105.536 35.5969 105.502 35.6195 105.465 35.6347C105.428 35.65 105.388 35.6576 105.347 35.6573H102.895V44.6674C102.892 44.7477 102.859 44.8241 102.802 44.8809C102.745 44.9377 102.669 44.9708 102.588 44.9732H101.092C101.011 44.9708 100.935 44.9377 100.878 44.8809C100.821 44.8241 100.788 44.7477 100.785 44.6674L100.763 35.6573Z" fill="black"/>
<path d="M107.398 34.0354C107.4 33.955 107.433 33.8787 107.49 33.8218C107.547 33.765 107.624 33.732 107.704 33.7296H109.232C109.273 33.7292 109.313 33.7369 109.35 33.7522C109.387 33.7674 109.421 33.7899 109.45 33.8184C109.478 33.8469 109.501 33.8807 109.516 33.9179C109.531 33.9552 109.539 33.9951 109.539 34.0354V40.6162C109.539 41.9813 110.473 43.0626 111.874 43.0626C113.274 43.0626 114.226 41.9862 114.226 40.6382V34.0354C114.225 33.9953 114.233 33.9556 114.248 33.9185C114.263 33.8814 114.286 33.8477 114.314 33.8193C114.342 33.7908 114.376 33.7683 114.413 33.7529C114.45 33.7375 114.49 33.7296 114.53 33.7296H116.06C116.141 33.732 116.217 33.765 116.274 33.8218C116.331 33.8787 116.364 33.955 116.367 34.0354V40.7165C116.339 41.8847 115.855 42.996 115.017 43.8126C114.179 44.6292 113.054 45.0863 111.882 45.0863C110.711 45.0863 109.586 44.6292 108.748 43.8126C107.91 42.996 107.425 41.8847 107.398 40.7165V34.0354Z" fill="black"/>
<path d="M118.444 34.0354C118.444 33.9951 118.452 33.9552 118.467 33.9179C118.482 33.8807 118.505 33.8469 118.533 33.8184C118.562 33.7899 118.596 33.7674 118.633 33.7522C118.67 33.7369 118.71 33.7292 118.751 33.7296H123.354C123.813 33.7267 124.267 33.8139 124.692 33.9864C125.116 34.1588 125.503 34.4131 125.829 34.7346C126.155 35.0561 126.414 35.4386 126.592 35.8601C126.769 36.2816 126.862 36.734 126.864 37.1912C126.864 38.6591 125.883 39.8822 124.483 40.4351L126.69 44.5133C126.72 44.5603 126.737 44.6147 126.738 44.6706C126.74 44.7266 126.725 44.7817 126.697 44.8301C126.669 44.8784 126.628 44.9181 126.579 44.9446C126.529 44.9712 126.474 44.9836 126.418 44.9805H124.723C124.671 44.9832 124.619 44.971 124.573 44.9455C124.528 44.9199 124.49 44.882 124.465 44.8362L122.324 40.5795H120.536V44.6747C120.534 44.7547 120.501 44.8307 120.445 44.8874C120.388 44.9442 120.312 44.9775 120.232 44.9805H118.761C118.72 44.9809 118.68 44.9732 118.643 44.9579C118.606 44.9427 118.572 44.9202 118.543 44.8917C118.515 44.8632 118.492 44.8294 118.477 44.7922C118.461 44.7549 118.454 44.715 118.454 44.6747L118.444 34.0354ZM123.178 38.8523C123.605 38.8408 124.011 38.6633 124.309 38.3575C124.607 38.0517 124.773 37.642 124.772 37.2157C124.762 36.8001 124.59 36.4048 124.292 36.1138C123.994 35.8229 123.595 35.6591 123.178 35.6573H120.554V38.8523H123.178Z" fill="black"/>
<path d="M128.814 34.0354C128.814 33.9951 128.821 33.9552 128.837 33.9179C128.852 33.8807 128.874 33.8469 128.903 33.8184C128.932 33.7899 128.965 33.7674 129.003 33.7522C129.04 33.7369 129.08 33.7292 129.12 33.7296H135.674C135.714 33.7296 135.754 33.7375 135.791 33.7529C135.828 33.7683 135.862 33.7908 135.89 33.8193C135.918 33.8477 135.94 33.8814 135.956 33.9185C135.971 33.9556 135.978 33.9953 135.978 34.0354V35.3515C135.978 35.3916 135.971 35.4313 135.956 35.4684C135.94 35.5054 135.918 35.5392 135.89 35.5676C135.862 35.596 135.828 35.6186 135.791 35.634C135.754 35.6494 135.714 35.6573 135.674 35.6573H130.906V38.2921H134.884C134.964 38.2945 135.04 38.3272 135.097 38.3835C135.154 38.4398 135.188 38.5156 135.191 38.5954V39.9287C135.191 39.969 135.183 40.0089 135.168 40.0461C135.153 40.0834 135.13 40.1172 135.102 40.1457C135.073 40.1742 135.039 40.1967 135.002 40.2119C134.964 40.2272 134.924 40.2349 134.884 40.2345H130.906V43.0454H135.674C135.714 43.0454 135.754 43.0534 135.791 43.0688C135.828 43.0842 135.862 43.1067 135.89 43.1352C135.918 43.1636 135.94 43.1973 135.956 43.2344C135.971 43.2715 135.978 43.3112 135.978 43.3512V44.6674C135.978 44.7075 135.971 44.7472 135.956 44.7842C135.94 44.8213 135.918 44.8551 135.89 44.8835C135.862 44.9119 135.828 44.9345 135.791 44.9499C135.754 44.9653 135.714 44.9732 135.674 44.9732H129.12C129.08 44.9735 129.04 44.9658 129.003 44.9506C128.965 44.9353 128.932 44.9128 128.903 44.8844C128.874 44.8559 128.852 44.8221 128.837 44.7848C128.821 44.7476 128.814 44.7077 128.814 44.6674V34.0354Z" fill="black"/>
<path d="M137.653 43.3977L138.234 42.402C138.261 42.3564 138.296 42.3168 138.339 42.2859C138.382 42.255 138.431 42.2335 138.482 42.2229C138.534 42.2122 138.588 42.2127 138.639 42.2242C138.691 42.2357 138.739 42.2579 138.781 42.2895C138.862 42.3384 140.165 43.2852 141.212 43.2852C142.051 43.2852 142.683 42.7396 142.683 42.062C142.683 41.2424 141.989 40.6798 140.638 40.1342C139.125 39.5251 137.611 38.5612 137.611 36.6652C137.611 35.2365 138.673 33.5828 141.234 33.5828C142.392 33.6057 143.515 33.9803 144.454 34.6567C144.533 34.7175 144.587 34.8056 144.605 34.9037C144.623 35.0019 144.603 35.1031 144.55 35.1876L143.939 36.1026C143.89 36.2023 143.803 36.2786 143.697 36.3147C143.591 36.3509 143.476 36.3441 143.375 36.2958C143.245 36.2151 142.021 35.4127 141.136 35.4127C140.25 35.4127 139.721 36.0218 139.721 36.538C139.721 37.2915 140.317 37.8053 141.619 38.3361C143.181 38.9624 144.984 39.8945 144.984 41.9666C144.984 43.6203 143.552 45.1469 141.281 45.1469C139.252 45.1469 138.06 44.2001 137.739 43.8943C137.589 43.7353 137.508 43.6546 137.653 43.3977Z" fill="black"/>
</svg>
