<svg width="232" height="270" viewBox="0 0 232 270" fill="none" xmlns="http://www.w3.org/2000/svg">
<g clip-path="url(#clip0_815_38)">
<path opacity="0.1" d="M72.8988 210.505L254.591 78.2305C272.282 65.3508 297.04 69.0785 310.154 86.5965L345.112 133.291C351.445 141.751 354.173 152.374 352.7 162.839L325.214 358.115C322.965 374.095 311.334 387.158 295.722 391.239L245 404.5L196.208 417.256C179.64 421.587 162.153 414.892 152.715 400.604L63.0659 264.89C51.2796 247.048 55.6111 223.091 72.8988 210.505Z" fill="#4F7AC2"/>
<path opacity="0.1" d="M150.121 149.059L126.414 -74.4277C124.105 -96.1889 139.712 -115.766 161.441 -118.364L219.358 -125.291C229.851 -126.546 240.415 -123.597 248.741 -117.089L404.113 4.35324C416.827 14.2908 422.324 30.8947 418.053 46.4561L404.176 97.0127L390.827 145.646C386.294 162.16 371.753 173.956 354.659 174.986L192.303 184.767C170.958 186.053 152.377 170.324 150.121 149.059Z" fill="#4F7AC2"/>
</g>
<defs>
<clipPath id="clip0_815_38">
<rect width="232" height="270" fill="white"/>
</clipPath>
</defs>
</svg>
