<svg width="657" height="677" viewBox="0 0 657 677" fill="none" xmlns="http://www.w3.org/2000/svg">
<path d="M197.5 0L200.293 36.7069L237 39.5L200.293 42.2931L197.5 79L194.707 42.2931L158 39.5L194.707 36.7069L197.5 0Z" fill="#D5E4FF"/>
<path d="M277.5 0L280.293 36.7069L317 39.5L280.293 42.2931L277.5 79L274.707 42.2931L238 39.5L274.707 36.7069L277.5 0Z" fill="#D5E4FF"/>
<path d="M237.5 39L240.293 75.7069L277 78.5L240.293 81.2931L237.5 118L234.707 81.2931L198 78.5L234.707 75.7069L237.5 39Z" fill="#D5E4FF"/>
<path d="M317.5 39L320.293 75.7069L357 78.5L320.293 81.2931L317.5 118L314.707 81.2931L278 78.5L314.707 75.7069L317.5 39Z" fill="#D5E4FF"/>
<path d="M277.5 78L280.293 114.707L317 117.5L280.293 120.293L277.5 157L274.707 120.293L238 117.5L274.707 114.707L277.5 78Z" fill="#D5E4FF"/>
<path d="M317.5 117L320.293 153.707L357 156.5L320.293 159.293L317.5 196L314.707 159.293L278 156.5L314.707 153.707L317.5 117Z" fill="#D5E4FF"/>
<path d="M118.5 0L121.293 36.7069L158 39.5L121.293 42.2931L118.5 79L115.707 42.2931L79 39.5L115.707 36.7069L118.5 0Z" fill="#D5E4FF"/>
<path d="M158.5 39L161.293 75.7069L198 78.5L161.293 81.2931L158.5 118L155.707 81.2931L119 78.5L155.707 75.7069L158.5 39Z" fill="#D5E4FF"/>
<path d="M198.5 78L201.293 114.707L238 117.5L201.293 120.293L198.5 157L195.707 120.293L159 117.5L195.707 114.707L198.5 78Z" fill="#D5E4FF"/>
<path d="M238.5 117L241.293 153.707L278 156.5L241.293 159.293L238.5 196L235.707 159.293L199 156.5L235.707 153.707L238.5 117Z" fill="#D5E4FF"/>
<path d="M39.5 0L42.2931 36.7069L79 39.5L42.2931 42.2931L39.5 79L36.7069 42.2931L0 39.5L36.7069 36.7069L39.5 0Z" fill="#D5E4FF"/>
<path d="M79.5 39L82.2931 75.7069L119 78.5L82.2931 81.2931L79.5 118L76.7069 81.2931L40 78.5L76.7069 75.7069L79.5 39Z" fill="#D5E4FF"/>
<path d="M119.5 78L122.293 114.707L159 117.5L122.293 120.293L119.5 157L116.707 120.293L80 117.5L116.707 114.707L119.5 78Z" fill="#D5E4FF"/>
<path d="M39.5 78L42.2931 114.707L79 117.5L42.2931 120.293L39.5 157L36.7069 120.293L0 117.5L36.7069 114.707L39.5 78Z" fill="#D5E4FF"/>
<path d="M159.5 117L162.293 153.707L199 156.5L162.293 159.293L159.5 196L156.707 159.293L120 156.5L156.707 153.707L159.5 117Z" fill="#D5E4FF"/>
<path d="M79.5 117L82.2931 153.707L119 156.5L82.2931 159.293L79.5 196L76.7069 159.293L40 156.5L76.7069 153.707L79.5 117Z" fill="#D5E4FF"/>
<path d="M497.5 481L500.293 517.707L537 520.5L500.293 523.293L497.5 560L494.707 523.293L458 520.5L494.707 517.707L497.5 481Z" fill="#D5E4FF"/>
<path d="M577.5 481L580.293 517.707L617 520.5L580.293 523.293L577.5 560L574.707 523.293L538 520.5L574.707 517.707L577.5 481Z" fill="#D5E4FF"/>
<path d="M537.5 520L540.293 556.707L577 559.5L540.293 562.293L537.5 599L534.707 562.293L498 559.5L534.707 556.707L537.5 520Z" fill="#D5E4FF"/>
<path d="M617.5 520L620.293 556.707L657 559.5L620.293 562.293L617.5 599L614.707 562.293L578 559.5L614.707 556.707L617.5 520Z" fill="#D5E4FF"/>
<path d="M577.5 559L580.293 595.707L617 598.5L580.293 601.293L577.5 638L574.707 601.293L538 598.5L574.707 595.707L577.5 559Z" fill="#D5E4FF"/>
<path d="M617.5 598L620.293 634.707L657 637.5L620.293 640.293L617.5 677L614.707 640.293L578 637.5L614.707 634.707L617.5 598Z" fill="#D5E4FF"/>
<path d="M418.5 481L421.293 517.707L458 520.5L421.293 523.293L418.5 560L415.707 523.293L379 520.5L415.707 517.707L418.5 481Z" fill="#D5E4FF"/>
<path d="M458.5 520L461.293 556.707L498 559.5L461.293 562.293L458.5 599L455.707 562.293L419 559.5L455.707 556.707L458.5 520Z" fill="#D5E4FF"/>
<path d="M498.5 559L501.293 595.707L538 598.5L501.293 601.293L498.5 638L495.707 601.293L459 598.5L495.707 595.707L498.5 559Z" fill="#D5E4FF"/>
<path d="M538.5 598L541.293 634.707L578 637.5L541.293 640.293L538.5 677L535.707 640.293L499 637.5L535.707 634.707L538.5 598Z" fill="#D5E4FF"/>
<path d="M339.5 481L342.293 517.707L379 520.5L342.293 523.293L339.5 560L336.707 523.293L300 520.5L336.707 517.707L339.5 481Z" fill="#D5E4FF"/>
<path d="M379.5 520L382.293 556.707L419 559.5L382.293 562.293L379.5 599L376.707 562.293L340 559.5L376.707 556.707L379.5 520Z" fill="#D5E4FF"/>
<path d="M419.5 559L422.293 595.707L459 598.5L422.293 601.293L419.5 638L416.707 601.293L380 598.5L416.707 595.707L419.5 559Z" fill="#D5E4FF"/>
<path d="M339.5 559L342.293 595.707L379 598.5L342.293 601.293L339.5 638L336.707 601.293L300 598.5L336.707 595.707L339.5 559Z" fill="#D5E4FF"/>
<path d="M459.5 598L462.293 634.707L499 637.5L462.293 640.293L459.5 677L456.707 640.293L420 637.5L456.707 634.707L459.5 598Z" fill="#D5E4FF"/>
<path d="M379.5 598L382.293 634.707L419 637.5L382.293 640.293L379.5 677L376.707 640.293L340 637.5L376.707 634.707L379.5 598Z" fill="#D5E4FF"/>
</svg>
